<svg viewBox="0 0 781 345" fill="none" xmlns="http://www.w3.org/2000/svg">
<g id="Group 197">
<path id="Vector" d="M412.85 156.36L554.64 238.22C559.13 240.82 561.64 244.14 562.09 247.53C562.69 243.33 560.2 239.01 554.64 235.8L412.85 153.93C407.95 151.1 401.56 149.67 395.16 149.61V152C401.56 152.1 408 153.53 412.85 156.36Z" fill="#E5E8FD"/>
<path id="Vector_2" d="M235.56 238.23L376.72 156.36C381.79 153.36 388.49 151.98 395.16 152.04V149.61C388.49 149.55 381.79 150.99 376.72 153.93L235.56 235.8C230.08 238.98 227.64 243.26 228.22 247.42C228.7 244.07 231.14 240.79 235.56 238.23Z" fill="#C0C7F0"/>
<path id="Vector_3" d="M228.24 247.5C228.244 247.474 228.244 247.447 228.24 247.42C228.24 247.67 228.18 247.93 228.17 248.18" fill="#3C206A"/>
<path id="Vector_4" d="M412.85 176.59L553.21 257.59L554.76 256.69C559.17 254.13 561.61 250.85 562.09 247.5C561.61 244.11 559.09 240.79 554.64 238.19L412.85 156.36C402.85 150.58 386.67 150.58 376.72 156.36L235.56 238.23C231.11 240.81 228.69 244.12 228.24 247.5C228.74 250.86 231.24 254.15 235.67 256.72L237.11 257.55L376.72 176.55C386.67 170.81 402.84 170.81 412.85 176.59Z" fill="#3C206A"/>
<path id="Vector_5" d="M228.15 268.41C228.15 268.18 228.21 267.95 228.24 267.72C228.244 267.694 228.244 267.667 228.24 267.64C228.19 267.9 228.16 268.15 228.15 268.41Z" fill="#3C206A"/>
<path id="Vector_6" d="M395.16 342.91C401.83 342.97 408.52 341.53 413.59 338.58L553.21 257.58L412.85 176.58C402.85 170.8 386.67 170.8 376.72 176.58L237.11 257.58L377.46 338.58C382.37 341.42 388.75 342.85 395.16 342.91Z" fill="#4649D4"/>
<path id="Vector_7" d="M297.24 266.47L302.93 263.18C303.9 262.688 304.972 262.431 306.06 262.431C307.148 262.431 308.22 262.688 309.19 263.18C310.91 264.18 310.9 265.8 309.19 266.8L303.49 270.09C302.522 270.583 301.451 270.84 300.365 270.84C299.279 270.84 298.208 270.583 297.24 270.09C295.5 269.09 295.51 267.47 297.24 266.47Z" fill="#86A5F8"/>
<path id="Vector_8" d="M313.46 257.101C314.428 256.608 315.499 256.351 316.585 256.351C317.671 256.351 318.742 256.608 319.71 257.101C321.43 258.101 321.42 259.721 319.71 260.721C318.742 261.213 317.671 261.47 316.585 261.47C315.499 261.47 314.428 261.213 313.46 260.721C311.72 259.721 311.73 258.101 313.46 257.101Z" fill="#F67682"/>
<path id="Vector_9" d="M324.2 250.901L352.46 234.581C353.429 234.09 354.499 233.835 355.585 233.835C356.671 233.835 357.741 234.09 358.71 234.581C360.43 235.581 360.43 237.211 358.71 238.211L330.45 254.521C329.482 255.013 328.411 255.27 327.325 255.27C326.239 255.27 325.168 255.013 324.2 254.521C322.46 253.521 322.47 251.901 324.2 250.901Z" fill="#F67682"/>
<path id="Vector_10" d="M363 228.51L370 224.51C370.968 224.018 372.039 223.761 373.125 223.761C374.211 223.761 375.282 224.018 376.25 224.51C377.98 225.51 377.97 227.14 376.25 228.14L369.25 232.14C368.28 232.633 367.208 232.89 366.12 232.89C365.032 232.89 363.96 232.633 362.99 232.14C361.24 231.13 361.25 229.51 363 228.51Z" fill="#86A5F8"/>
<path id="Vector_11" d="M314.68 275.8L331.78 265.92C332.75 265.428 333.822 265.171 334.91 265.171C335.998 265.171 337.07 265.428 338.04 265.92C339.76 266.92 339.75 268.54 338.04 269.54L320.93 279.42C319.962 279.913 318.891 280.17 317.805 280.17C316.719 280.17 315.648 279.913 314.68 279.42C312.94 278.42 312.94 276.8 314.68 275.8Z" fill="#86A5F8"/>
<path id="Vector_12" d="M342.31 259.85L370.57 243.53C371.538 243.038 372.609 242.781 373.695 242.781C374.781 242.781 375.852 243.038 376.82 243.53C378.54 244.53 378.53 246.15 376.82 247.15L348.56 263.47C347.592 263.963 346.521 264.22 345.435 264.22C344.349 264.22 343.278 263.963 342.31 263.47C340.57 262.47 340.58 260.85 342.31 259.85Z" fill="#86A5F8"/>
<path id="Vector_13" d="M381.09 237.46L388.09 233.46C389.058 232.968 390.129 232.711 391.215 232.711C392.301 232.711 393.372 232.968 394.34 233.46C396.06 234.46 396.05 236.08 394.34 237.08L387.34 241.08C386.372 241.573 385.301 241.83 384.215 241.83C383.129 241.83 382.058 241.573 381.09 241.08C379.35 240.08 379.36 238.46 381.09 237.46Z" fill="#86A5F8"/>
<path id="Vector_14" d="M314.75 302.38L335.86 290.19C337.59 289.19 337.6 287.57 335.86 286.57C334.892 286.078 333.821 285.821 332.735 285.821C331.649 285.821 330.578 286.078 329.61 286.57L308.5 298.76L314.75 302.38Z" fill="#86A5F8"/>
<path id="Vector_15" d="M340.15 280.49L352.61 273.3C353.578 272.808 354.649 272.551 355.735 272.551C356.821 272.551 357.892 272.808 358.86 273.3C360.58 274.3 360.57 275.92 358.86 276.92L346.4 284.11C345.432 284.603 344.361 284.86 343.275 284.86C342.189 284.86 341.118 284.603 340.15 284.11C338.41 283.11 338.42 281.49 340.15 280.49Z" fill="#86A5F8"/>
<path id="Vector_16" d="M363.13 267.221L369.13 263.771C370.1 263.278 371.172 263.021 372.26 263.021C373.348 263.021 374.42 263.278 375.39 263.771C377.11 264.771 377.1 266.391 375.39 267.391L369.39 270.851C368.422 271.343 367.351 271.6 366.265 271.6C365.179 271.6 364.108 271.343 363.14 270.851C361.39 269.851 361.4 268.231 363.13 267.221Z" fill="#86A5F8"/>
<path id="Vector_17" d="M379.64 257.69C380.609 257.2 381.679 256.945 382.765 256.945C383.851 256.945 384.921 257.2 385.89 257.69C387.61 258.69 387.6 260.32 385.89 261.32C384.922 261.813 383.851 262.07 382.765 262.07C381.679 262.07 380.608 261.813 379.64 261.32C377.9 260.32 377.91 258.7 379.64 257.69Z" fill="#86A5F8"/>
<path id="Vector_18" d="M383 317.56C383.968 317.068 385.039 316.811 386.125 316.811C387.211 316.811 388.282 317.068 389.25 317.56C390.98 318.56 390.97 320.18 389.25 321.18C388.28 321.673 387.208 321.93 386.12 321.93C385.032 321.93 383.96 321.673 382.99 321.18C381.22 320.18 381.23 318.56 383 317.56Z" fill="#86A5F8"/>
<path id="Vector_19" d="M393.49 311.48L405.94 304.29C406.908 303.798 407.979 303.541 409.065 303.541C410.151 303.541 411.222 303.798 412.19 304.29C413.92 305.29 413.91 306.91 412.19 307.91L399.73 315.1C398.762 315.593 397.691 315.85 396.605 315.85C395.519 315.85 394.448 315.593 393.48 315.1C391.75 314.1 391.75 312.48 393.49 311.48Z" fill="#86A5F8"/>
<path id="Vector_20" d="M416.47 298.21L424.63 293.5C425.598 293.008 426.669 292.751 427.755 292.751C428.841 292.751 429.912 293.008 430.88 293.5C432.61 294.5 432.6 296.12 430.88 297.12L422.72 301.83C421.752 302.323 420.681 302.58 419.595 302.58C418.509 302.58 417.438 302.323 416.47 301.83C414.73 300.83 414.73 299.21 416.47 298.21Z" fill="#86A5F8"/>
<path id="Vector_21" d="M435.16 287.42L456.77 274.94C457.74 274.448 458.812 274.191 459.9 274.191C460.988 274.191 462.06 274.448 463.03 274.94C464.75 275.94 464.74 277.56 463.03 278.56L441.39 291C440.422 291.493 439.351 291.75 438.265 291.75C437.179 291.75 436.108 291.493 435.14 291C433.42 290 433.42 288.42 435.16 287.42Z" fill="#F67682"/>
<path id="Vector_22" d="M467.3 268.861L474.3 264.861C475.268 264.368 476.339 264.111 477.425 264.111C478.511 264.111 479.582 264.368 480.55 264.861C482.27 265.861 482.26 267.481 480.55 268.481L473.55 272.481C472.582 272.973 471.511 273.23 470.425 273.23C469.339 273.23 468.268 272.973 467.3 272.481C465.56 271.491 465.57 269.871 467.3 268.861Z" fill="#86A5F8"/>
<path id="Vector_23" d="M399.76 327.26L406.76 323.26C407.728 322.768 408.799 322.511 409.885 322.511C410.971 322.511 412.042 322.768 413.01 323.26C414.74 324.26 414.73 325.88 413.01 326.88L406.01 330.88C405.04 331.373 403.968 331.63 402.88 331.63C401.792 331.63 400.72 331.373 399.75 330.88C398 329.88 398 328.26 399.76 327.26Z" fill="#86A5F8"/>
<path id="Vector_24" d="M417.28 317.15L429.73 309.95C430.698 309.458 431.769 309.201 432.855 309.201C433.941 309.201 435.012 309.458 435.98 309.95C437.71 310.95 437.7 312.58 435.98 313.58L423.52 320.77C422.552 321.263 421.481 321.52 420.395 321.52C419.309 321.52 418.238 321.263 417.27 320.77C415.54 319.77 415.54 318.15 417.28 317.15Z" fill="#86A5F8"/>
<path id="Vector_25" d="M440.26 303.88L441.78 303C442.748 302.508 443.819 302.251 444.905 302.251C445.991 302.251 447.062 302.508 448.03 303C449.75 304 449.74 305.62 448.03 306.62L446.51 307.5C445.542 307.993 444.471 308.25 443.385 308.25C442.299 308.25 441.228 307.993 440.26 307.5C438.52 306.5 438.52 304.88 440.26 303.88Z" fill="#86A5F8"/>
<path id="Vector_26" d="M265.39 249.821L272.39 245.821C273.357 245.325 274.428 245.066 275.515 245.066C276.602 245.066 277.673 245.325 278.64 245.821C280.36 246.821 280.36 248.441 278.64 249.441L271.64 253.441C270.672 253.933 269.601 254.19 268.515 254.19C267.429 254.19 266.358 253.933 265.39 253.441C263.65 252.441 263.66 250.821 265.39 249.821Z" fill="#86A5F8"/>
<path id="Vector_27" d="M282.9 239.711L311.41 223.251C312.38 222.758 313.452 222.501 314.54 222.501C315.628 222.501 316.7 222.758 317.67 223.251C319.39 224.251 319.38 225.871 317.67 226.871L289.16 243.331C288.19 243.823 287.118 244.08 286.03 244.08C284.942 244.08 283.87 243.823 282.9 243.331C281.16 242.331 281.17 240.711 282.9 239.711Z" fill="#86A5F8"/>
<path id="Vector_28" d="M332.28 312.5L356.21 298.68C356.325 298.615 356.451 298.572 356.581 298.555C356.712 298.538 356.845 298.547 356.972 298.582C357.099 298.616 357.218 298.675 357.323 298.755C357.427 298.836 357.515 298.936 357.58 299.05C357.646 299.165 357.688 299.291 357.705 299.421C357.722 299.552 357.713 299.685 357.679 299.812C357.645 299.939 357.586 300.058 357.505 300.163C357.425 300.267 357.325 300.355 357.21 300.42L334.28 313.66L332.28 312.5Z" fill="#392366"/>
<g class="middle-layer">
<g class="inside">
<path id="Vector_29" d="M376.72 84.7505L235.56 166.611C225.61 172.401 225.66 181.761 235.67 187.541L377.46 269.401C382.37 272.241 388.75 273.671 395.16 273.731V80.4305C388.49 80.3705 381.8 81.8005 376.72 84.7505Z" fill="white"/>
<path id="Vector_30" d="M413.59 269.4L554.76 187.54C564.7 181.76 564.65 172.39 554.64 166.61L412.85 84.7504C407.95 81.9204 401.56 80.4904 395.16 80.4304V273.73C401.83 273.79 408.52 272.35 413.59 269.4Z" fill="#C0C7F0"/>
<path id="Vector_31" d="M554.64 164.18C564.64 169.97 564.7 179.33 554.76 185.11L413.59 267C403.64 272.78 387.47 272.78 377.46 267L235.67 185.11C225.67 179.33 225.61 169.97 235.56 164.19L376.72 82.3204C386.67 76.5404 402.84 76.5404 412.85 82.3204L554.64 164.18Z" fill="#E5E8FD"/>
<path id="Vector_32" d="M342.95 220.73L320.16 233.89L322.16 235.04L344.95 221.89L342.95 220.73Z" fill="#C0C7F0"/>
<path id="Vector_33" d="M528.13 178.701C523.13 175.811 515.05 175.801 510.03 178.701L489.8 190.381C484.8 193.281 484.8 197.971 489.74 200.861C494.68 203.751 502.83 203.761 507.85 200.861L528.08 189.181C533.1 186.291 533.12 181.601 528.13 178.701Z" fill="white"/>
<path id="Vector_34" d="M494.53 193.47C492.59 194.59 492.58 196.41 494.53 197.52C495.614 198.074 496.813 198.363 498.03 198.363C499.247 198.363 500.446 198.074 501.53 197.52C503.47 196.4 503.48 194.58 501.53 193.46C500.444 192.913 499.245 192.628 498.029 192.63C496.813 192.632 495.614 192.92 494.53 193.47Z" fill="#C0C7F0"/>
<path id="Vector_35" d="M498 195.5L482.63 204.37C480.35 205.687 477.763 206.38 475.13 206.38C472.497 206.38 469.911 205.687 467.63 204.37L461.34 200.74C459.06 199.424 456.473 198.731 453.84 198.731C451.207 198.731 448.621 199.424 446.34 200.74L425.26 212.91" stroke="#C0C7F0" stroke-width="2" stroke-miterlimit="10" stroke-linecap="round"/>
<path id="Vector_36" d="M331.18 149.87C326.18 146.98 318.1 146.97 313.08 149.87L292.85 161.55C287.85 164.45 287.85 169.14 292.79 172.04C297.73 174.94 305.88 174.94 310.89 172.04L331.13 160.36C336.14 157.46 336.16 152.77 331.18 149.87Z" fill="white"/>
<path id="Vector_37" d="M428.61 208.191C433.61 211.081 433.61 215.771 428.67 218.661L394.11 238.791C389.11 241.681 381.05 241.681 376.04 238.791L341.53 218.871C336.53 215.981 336.53 211.301 341.47 208.411L376 188.271C381 185.381 389.06 185.381 394.07 188.271L428.61 208.191Z" fill="white"/>
<path id="Vector_38" d="M347.12 211.541L359.58 204.351C360.548 203.858 361.619 203.601 362.705 203.601C363.791 203.601 364.862 203.858 365.83 204.351C367.55 205.351 367.54 206.971 365.83 207.971L353.37 215.161C352.402 215.653 351.331 215.91 350.245 215.91C349.159 215.91 348.088 215.653 347.12 215.161C345.38 214.161 345.39 212.541 347.12 211.541Z" fill="#C0C7F0"/>
<path id="Vector_39" d="M298.08 164.79C296.14 165.91 296.13 167.72 298.08 168.84C299.164 169.393 300.363 169.681 301.58 169.681C302.797 169.681 303.996 169.393 305.08 168.84C307.02 167.72 307.03 165.91 305.08 164.79C303.997 164.237 302.797 163.948 301.58 163.948C300.363 163.948 299.164 164.237 298.08 164.79Z" fill="#C0C7F0"/>
<path id="Vector_40" d="M298.81 166.821L251.4 194.191L253.4 195.351L300.81 167.971L298.81 166.821Z" fill="#C0C7F0"/>
</g>
</g>
<path id="Vector_41" d="M362.93 291.59C360.93 292.73 360.93 294.59 362.93 295.71C364.032 296.27 365.25 296.561 366.485 296.561C367.721 296.561 368.939 296.27 370.04 295.71C372.04 294.57 372.04 292.71 370.04 291.59C368.938 291.032 367.72 290.74 366.485 290.74C365.25 290.74 364.032 291.032 362.93 291.59Z" fill="#F67682"/>
<path id="Vector_42" d="M148.29 311.791L196.52 339.641C201.084 342.263 206.256 343.643 211.52 343.643C216.784 343.643 221.956 342.263 226.52 339.641L302.76 295.711C323.24 283.891 338.76 309.861 356.7 299.511L366.46 293.611" stroke="#F67682" stroke-width="2" stroke-miterlimit="10" stroke-linecap="round"/>
<path id="Vector_43" d="M494.47 276.63L547.11 246.23" stroke="#392366" stroke-width="2" stroke-miterlimit="10" stroke-linecap="round"/>
<path id="Vector_44" d="M477.73 286.25L494.47 276.63C520 261.87 505.26 238.15 532 222.72L606.82 179.25" stroke="#86A5F8" stroke-width="2" stroke-miterlimit="10" stroke-linecap="round"/>
<path id="Vector_45" d="M474.19 284.201C472.19 285.331 472.19 287.2 474.19 288.31C475.291 288.872 476.509 289.165 477.745 289.165C478.981 289.165 480.199 288.872 481.3 288.31C483.3 287.17 483.3 285.311 481.3 284.201C480.2 283.637 478.981 283.343 477.745 283.343C476.509 283.343 475.291 283.637 474.19 284.201Z" fill="#86A5F8"/>
<path id="Vector_46" d="M181.7 271.33C191.7 277.11 191.77 286.471 181.82 292.251L112.69 332.531C102.69 338.311 86.5703 338.311 76.5603 332.531L7.56031 292.681C-2.43969 286.901 -2.49969 277.541 7.45031 271.761L76.5803 231.481C86.5803 225.701 102.7 225.701 112.71 231.481L181.7 271.33Z" fill="#E5E8FD"/>
<path id="Vector_47" d="M249.32 83.0004C257.6 87.7804 257.64 95.5204 249.42 100.3L192.29 133.58C184.07 138.36 170.7 138.36 162.43 133.58L105.43 100.65C97.1602 95.8804 97.1102 88.1404 105.33 83.3604L162.47 50.0704C170.69 45.3004 184.05 45.3004 192.33 50.0704L249.32 83.0004Z" fill="#E5E8FD"/>
<g class="c-tile">
<path id="Vector_48" d="M162.43 24.3904L105.29 57.6704C97.0701 62.4504 97.1201 70.1904 105.39 74.9704L162.39 107.9C166.886 110.301 171.914 111.529 177.01 111.47L177.62 20.8204C172.332 20.6685 167.097 21.8991 162.43 24.3904Z" fill="#E5E8FD"/>
<path id="Vector_49" d="M192.29 107.9L249.42 74.6204C257.64 69.8404 257.6 62.1003 249.32 57.3204L192.32 24.3903C187.821 21.9898 182.789 20.7619 177.69 20.8204L177.08 111.47C182.374 111.622 187.617 110.392 192.29 107.9Z" fill="#C0C7F0"/>
<path id="Vector_50" d="M249.32 55.3104C257.6 60.0904 257.64 67.8304 249.42 72.6104L192.29 105.89C184.07 110.67 170.7 110.67 162.43 105.89L105.39 73.0004C97.1201 68.2304 97.0701 60.4804 105.29 55.7104L162.43 22.4204C170.65 17.6504 184.01 17.6404 192.29 22.4204L249.32 55.3104Z" fill="white"/>
<path id="Vector_51" d="M187.09 45.6405C186.222 45.1553 185.279 44.8174 184.3 44.6405C183.289 44.4472 182.253 44.4101 181.23 44.5305C172.41 45.5105 163.57 46.5272 154.71 47.5805C152.32 47.8605 150.97 48.6805 150.53 50.0505C149.86 52.1005 146.32 62.2205 145.29 65.2405C144.86 66.4905 145.56 67.6205 147.29 68.6105L168.68 80.8705C169.526 81.3509 170.445 81.6887 171.4 81.8705C172.435 82.0723 173.494 82.1128 174.54 81.9905C179.8 81.3805 197.38 79.3105 200.93 78.9205C203.32 78.6505 204.74 77.9205 205.21 76.5005C206.96 71.4105 208.73 66.3205 210.48 61.2305C210.59 60.9352 210.627 60.6182 210.591 60.3054C210.555 59.9926 210.445 59.6928 210.27 59.4305C209.808 58.7743 209.194 58.2393 208.48 57.8705L187.09 45.6405Z" fill="#E5E8FD"/>
<path id="Vector_52" d="M154.72 47.6305C152.34 47.9105 150.99 48.7305 150.54 50.1005C149.88 52.1005 146.34 62.2405 145.3 65.2605C144.88 66.5005 145.58 67.6305 147.3 68.6205L168.63 80.8405C169.476 81.3208 170.395 81.6587 171.35 81.8405C172.381 82.0422 173.437 82.0827 174.48 81.9605L179.71 81.3505L175.08 45.2305L154.72 47.6105" fill="#C0C7F0"/>
<path id="Vector_53" d="M178.75 59.0005L185 55.4705C182 53.7505 172.08 51.0605 164.59 55.3905C159.81 58.1405 156.92 63.8605 167.03 69.6505C177.14 75.4405 186.72 73.6505 191.62 70.8805C199.55 66.3005 195.08 61.5605 191.49 59.5005L185.19 62.6805C185.19 62.6805 189.5 64.9705 185.4 67.3505C181.6 69.5405 175.59 66.8205 173.76 65.7705C170.97 64.1705 167.36 61.1205 170.93 59.0605C174.5 57.0005 178.76 59.0105 178.76 59.0105" fill="white"/>
</g>
<path id="Vector_54" d="M772.93 153.24C782.93 159.03 782.99 168.39 773.05 174.17L703.91 214.45C693.97 220.23 677.8 220.23 667.78 214.45L598.78 174.6C588.78 168.82 588.72 159.45 598.66 153.67L667.79 113.4C677.79 107.62 693.91 107.62 703.92 113.4L772.93 153.24Z" fill="#E5E8FD"/>
<g class="python-tile">
<path id="Vector_55" d="M667.78 91.1504L598.65 131.42C588.71 137.2 588.76 146.57 598.77 152.35L667.77 192.2C672.68 195.03 679.06 196.46 685.47 196.52L686.21 86.8204C679.55 86.7604 672.86 88.2004 667.78 91.1504Z" fill="#E5E8FD"/>
<path id="Vector_56" d="M703.91 192.201L773.05 151.921C782.99 146.141 782.94 136.781 772.93 130.991L703.93 91.1506C699.03 88.3206 692.65 86.8806 686.24 86.8206L685.5 196.521C692.15 196.581 698.84 195.151 703.91 192.201Z" fill="#C0C7F0"/>
<path id="Vector_57" d="M772.93 128.571C782.93 134.351 782.99 143.711 773.05 149.491L703.91 189.771C693.97 195.55 677.8 195.55 667.78 189.771L598.78 149.92C588.78 144.14 588.72 134.771 598.66 128.991L667.79 88.7205C677.79 82.9405 693.91 82.9405 703.92 88.7205L772.93 128.571Z" fill="white"/>
<path id="Vector_58" d="M687.82 167.49C684.007 165.31 681.113 164.73 679.14 165.75C678.431 166.091 677.822 166.607 677.37 167.25C677.101 167.54 676.945 167.916 676.93 168.31L686.02 173.52C687.559 173.482 689.068 173.088 690.43 172.37C692.24 171.15 691.38 169.53 687.82 167.49ZM690.29 166.25C692.23 167.36 693.44 168.5 693.93 169.69C694.42 170.88 694.03 172.15 692.52 173.08C691.007 173.89 689.334 174.354 687.62 174.44L695.88 179.17L693.04 179.86L674.69 169.35C674.56 168.879 674.581 168.379 674.75 167.92C675.375 166.508 676.48 165.364 677.87 164.69H677.93C679.721 163.732 681.796 163.444 683.78 163.88C686.078 164.261 688.285 165.065 690.29 166.25ZM708.01 162.25C710.6 163.74 712.18 164.9 712.73 165.73C712.998 166.168 713.124 166.678 713.09 167.191C713.056 167.703 712.864 168.192 712.54 168.59C711.882 169.571 711.014 170.395 710 171L708.2 170.35C708.927 169.817 709.597 169.211 710.2 168.54C710.476 168.26 710.651 167.895 710.696 167.503C710.741 167.112 710.655 166.717 710.45 166.38C709.531 165.398 708.435 164.597 707.22 164.02L706.62 163.67C705.849 164.99 704.728 166.07 703.38 166.79C702.243 167.398 700.969 167.705 699.68 167.68C698.192 167.748 696.714 167.402 695.41 166.68L685.71 161.12L686.92 159.5L696.69 165.1C697.683 165.687 698.817 165.991 699.97 165.98C701.051 165.986 702.113 165.696 703.04 165.14C703.478 164.879 703.857 164.529 704.152 164.112C704.446 163.695 704.65 163.221 704.75 162.72L693.36 156.19L695.36 155.03L708 162.26L708.01 162.25ZM717.36 158.58C717.16 158.72 716.95 158.85 716.73 158.98C715.639 159.626 714.397 159.971 713.13 159.98C711.879 159.993 710.648 159.664 709.57 159.03L700.39 153.77L699.01 154.57L697.55 153.73L698.92 152.93L695 150.7L696.18 149.07L700.9 151.77L703.16 150.47L704.63 151.31L702.37 152.61L711.48 157.84C712.221 158.304 713.076 158.55 713.95 158.55C714.709 158.487 715.445 158.262 716.11 157.89L717.33 158.59L717.36 158.58ZM729.36 151.44L727.36 152.6L718.36 147.44C717.459 146.933 716.473 146.594 715.45 146.44C714.472 146.235 713.452 146.369 712.56 146.82C712.058 147.155 711.638 147.598 711.331 148.118C711.025 148.637 710.84 149.219 710.79 149.82L721.55 156L719.55 157.16L698 144.79L699.28 143.2L709.07 148.82C709.205 148.094 709.51 147.41 709.96 146.824C710.411 146.239 710.993 145.768 711.66 145.45C712.831 144.817 714.164 144.545 715.49 144.67C716.928 144.746 718.329 145.157 719.58 145.87L729.31 151.45L729.36 151.44ZM732.79 141.11C731.443 140.317 729.973 139.752 728.44 139.44C726.937 139.076 725.355 139.242 723.96 139.91C721.9 141.244 722.627 142.93 726.14 144.97C727.61 145.837 729.201 146.48 730.86 146.88C732.413 147.362 734.092 147.23 735.55 146.51C737.743 145.217 736.823 143.417 732.79 141.11ZM735.01 139.85C737.09 141.04 738.37 142.3 738.83 143.62C739.37 145.09 738.76 146.34 736.98 147.37C735.003 148.427 732.73 148.796 730.52 148.42C728.209 148.143 725.98 147.394 723.97 146.22C722.01 145.1 720.847 143.874 720.48 142.54C720.113 141.207 720.75 140.02 722.39 138.98C724.294 137.973 726.463 137.579 728.6 137.85C730.858 138.038 733.046 138.721 735.01 139.85ZM753.78 137.34L751.78 138.5L742.27 133.05C741.281 132.476 740.164 132.156 739.02 132.12C737.967 132.086 736.926 132.353 736.02 132.89C735.6 133.109 735.235 133.42 734.951 133.799C734.667 134.178 734.472 134.616 734.38 135.08L746.09 141.79L744 143L732 136.13C732.118 135.043 732.564 134.018 733.28 133.19C733.86 132.546 734.534 131.993 735.28 131.55C735.763 131.278 736.268 131.048 736.79 130.86C737.791 130.526 738.846 130.381 739.9 130.43C740.994 130.444 742.067 130.733 743.02 131.27L753.71 137.39L753.78 137.34Z" fill="#9FA6CF"/>
<path id="Vector_59" d="M650.88 118.231C649.659 118.926 648.507 119.736 647.44 120.651C644.76 122.991 645.59 124.181 648.26 125.711L651.78 127.711L659.78 123.101L660.96 123.771L649.96 130.111C647.64 131.451 647.22 133.541 649.66 135.671C652.386 138.099 655.587 139.935 659.06 141.061C662.36 142.301 665.67 142.631 667.98 141.291L670.73 139.711L666.5 137.291C663.5 135.541 663.04 132.681 665.74 131.121L673.74 126.521C675.96 125.241 675.61 123.001 673.03 121.521L664.23 116.521C662.873 115.843 661.391 115.453 659.877 115.376C658.363 115.298 656.849 115.535 655.43 116.071C653.867 116.68 652.352 117.409 650.9 118.251L650.88 118.231ZM649.4 122.351C649.917 122.119 650.482 122.013 651.048 122.039C651.614 122.065 652.166 122.223 652.66 122.501C653.66 123.051 653.75 123.891 652.92 124.371C652.404 124.599 651.841 124.705 651.277 124.679C650.713 124.653 650.163 124.496 649.67 124.221C648.67 123.671 648.57 122.821 649.4 122.351Z" fill="#9FA6CF"/>
<path id="Vector_60" d="M669.9 118.621L674 121.001C677.18 122.821 677.53 125.7 674.87 127.24L666.87 131.84C664.68 133.1 665.04 135.38 667.58 136.84L676.38 141.84C678.89 143.27 682.24 143.03 685.07 142.23C688.45 141.23 691.07 139.951 693.07 137.631C694.4 136.081 695.02 134.161 692.36 132.631L688.83 130.631L680.83 135.23L679.66 134.56L691.66 127.661C693.98 126.321 692.96 124.751 690.96 122.661C688.96 120.571 686.07 118.94 681.56 117.27C678.31 116.07 675.2 115.551 672.88 116.891L669.9 118.621ZM687.72 134.001C688.235 133.769 688.797 133.662 689.362 133.686C689.926 133.71 690.477 133.866 690.97 134.141C691.97 134.701 692.07 135.541 691.24 136.021C690.721 136.252 690.155 136.359 689.587 136.333C689.02 136.307 688.466 136.148 687.97 135.87C687 135.3 686.89 134.461 687.72 134.001Z" fill="#E5E8FD"/>
</g>
<g class="js_tile">
<path id="Vector_61" d="M76.5601 193.281L7.43012 233.551C-2.51988 239.331 -2.46988 248.701 7.54012 254.481L76.5401 294.33C81.4401 297.16 87.8301 298.591 94.2301 298.651L95.0001 189.001C88.3301 188.901 81.6301 190.331 76.5601 193.281Z" fill="#E5E8FD"/>
<path id="Vector_62" d="M112.69 294.33L181.82 254.05C191.82 248.27 191.72 238.91 181.7 233.12L112.7 193.28C107.78 190.45 101.4 189 95.0003 189L94.2603 298.701C100.92 298.711 107.61 297.28 112.69 294.33Z" fill="#C0C7F0"/>
<path id="Vector_63" d="M181.7 230.7C191.7 236.48 191.77 245.84 181.82 251.62L112.69 291.9C102.69 297.68 86.5703 297.68 76.5603 291.9L7.56031 252.05C-2.43969 246.27 -2.49969 236.91 7.45031 231.12L76.5803 190.85C86.5803 185.07 102.7 185.07 112.71 190.85L181.7 230.7Z" fill="white"/>
<path id="Vector_64" d="M124 258.56L125.3 254.3C127.87 254.8 130.09 255.2 131.93 254.14C133.77 253.08 133.99 252.03 130.93 250.26L109.86 238.18L115.2 235.1L136.36 247.22C142.78 250.9 142.45 254.44 137.72 257.22C133.44 259.69 128.39 259.65 124.03 258.6L124 258.56ZM142.27 247.31L143.71 243.12C147.02 243.7 150.1 243.75 152.71 242.23C154.92 240.95 155.05 239.4 153.28 238.39C151.16 237.17 148.95 237.58 145.28 238.28L143.28 238.67C137.52 239.81 132.57 239.91 127.52 237.02C122.88 234.36 122.39 230.57 127.16 227.81C130.56 225.81 134.38 225.22 139.72 226.26L138.66 230.44C135.84 229.88 134.09 230.02 132.56 230.91C131.03 231.8 131.16 233.04 132.66 233.91C134.52 234.98 136.27 234.84 139.71 234.17L141.71 233.78C148.51 232.45 153.37 232.29 158.55 235.26C164.13 238.46 163.4 242.39 158.32 245.32C153.24 248.25 147.4 248.47 142.25 247.32" fill="#9FA6CF"/>
</g>
<path id="Vector_65" d="M144.8 309.79C142.86 310.91 142.8 312.72 144.8 313.79C145.884 314.343 147.083 314.631 148.3 314.631C149.516 314.631 150.716 314.343 151.8 313.79C153.74 312.67 153.74 310.86 151.8 309.79C150.716 309.238 149.516 308.95 148.3 308.95C147.083 308.95 145.884 309.238 144.8 309.79Z" fill="#F67682"/>
<path id="Vector_66" d="M603.33 177.23C601.39 178.35 601.33 180.16 603.33 181.28C604.414 181.833 605.614 182.121 606.83 182.121C608.047 182.121 609.246 181.833 610.33 181.28C612.27 180.16 612.33 178.35 610.33 177.23C609.247 176.676 608.047 176.388 606.83 176.388C605.613 176.388 604.414 176.676 603.33 177.23Z" fill="#86A5F8"/>
<path id="Vector_67" opacity="0.6" d="M256.09 107L278.6 120L339.92 84.6005L297.33 60.0005C281.74 69.2805 278.43 94.0805 256.09 107Z" fill="white"/>
<g class="top-layer">
<g class="inside">
<path id="Vector_68" d="M376.72 11.5506L235.56 93.4106C225.61 99.1906 225.66 108.551 235.67 114.331L377.46 196.201C382.37 199.031 388.75 200.461 395.16 200.521V7.22055C388.49 7.16055 381.8 8.60055 376.72 11.5506Z" fill="#E5E8FD"/>
<path id="Vector_69" d="M413.59 196.2L554.76 114.33C564.7 108.55 564.65 99.1905 554.64 93.4105L412.85 11.5405C407.95 8.71046 401.56 7.28046 395.16 7.22046V200.52C401.83 200.58 408.52 199.14 413.59 196.2Z" fill="#C0C7F0"/>
<path id="Vector_70" d="M554.64 91.0004C564.64 96.7804 564.7 106.14 554.76 111.92L413.59 193.77C403.64 199.55 387.47 199.55 377.46 193.77L235.67 111.91C225.67 106.13 225.61 96.7604 235.56 90.9804L376.72 9.1204C386.67 3.3404 402.84 3.3404 412.85 9.1204L554.64 91.0004Z" fill="white"/>
<path id="Vector_71" d="M402.48 22.4605C401.933 22.7799 401.339 23.0127 400.72 23.1505L367.2 3.80047L366.91 3.63047L366.8 3.57047C361.34 0.470466 356.07 -1.11953 351.52 0.900466C339.66 6.19047 335.46 23.3405 332.29 31.6305C328.29 42.1405 325.11 47.6305 317.57 51.8505C312.912 54.264 308.007 56.1684 302.94 57.5305C300.976 58.1206 299.092 58.9501 297.33 60.0005C281.74 69.2905 278.43 94.0905 256.09 107L278.6 120L339.92 84.6005L357.09 74.6905L418.19 39.4105L425 35.4605L402.48 22.4605Z" fill="#F67682"/>
<g class="Frame" clip-path="url(#clip0)">
<path id="Vector_72" opacity="0.6" d="M256.09 107L278.6 120L339.92 84.6005L297.33 60.0005C281.74 69.2805 278.43 94.0805 256.09 107Z" fill="white"/>
</g>
<path id="Vector_73" opacity="0.6" d="M351.52 0.900391C339.66 6.19039 335.46 23.3404 332.29 31.6304C328.29 42.1404 325.11 47.6304 317.57 51.8504L357.09 74.6704L418.19 39.3904L351.52 0.900391Z" fill="white"/>
<path id="Vector_74" opacity="0.3" d="M425 35.4605L402.48 22.4605C401.933 22.7799 401.339 23.0127 400.72 23.1505L367.2 3.80047L366.91 3.63047L366.8 3.57047C361.34 0.470466 356.07 -1.11953 351.52 0.900466L418.19 39.3905L425 35.4605Z" fill="white"/>
<path id="Vector_75" opacity="0.3" d="M317.57 51.8506C312.912 54.2641 308.007 56.1685 302.94 57.5306C300.976 58.1207 299.092 58.9503 297.33 60.0006L339.92 84.5906L357.09 74.6806L317.57 51.8506Z" fill="white"/>
<path id="Vector_76" d="M325.45 70.5304C304.74 76.7004 303.4 105.67 278.6 120L425 35.4604C413.4 42.1604 389.54 7.00041 374 13.9004C362.17 19.1904 358 36.3404 354.81 44.6304C348.86 60.2404 344.76 64.7804 325.45 70.5304Z" fill="#F67682"/>
<path id="Vector_77" d="M447.51 48.4604L425 35.4604L420 37.0704C410.76 37.7304 402.94 26.4304 392.89 29.0704L438.4 53.7304L447.51 48.4604Z" fill="#E5E8FD"/>
<path id="Vector_78" d="M341.42 41.7304L400.3 75.7304L414.3 67.6504L373.6 44.1504C365.63 48.0004 356.06 33.2804 341.42 41.7304Z" fill="#E5E8FD"/>
<path id="Vector_79" d="M341.42 41.7305C322.71 52.5305 322.2 94.8105 297.42 109.13L319.93 122.13L400.3 75.7205L341.42 41.7205V41.7305Z" fill="white"/>
<path id="Vector_80" d="M392.84 29.0605C383.12 31.6105 381.59 40.2605 373.61 44.1405L414.31 67.6405L425.71 43.7005L392.84 29.0605Z" fill="white"/>
<path id="Vector_81" d="M363.94 54.7304C345.23 65.5304 344.72 107.81 319.94 122.13L447.51 48.4604C435.92 55.1604 427.18 38.9604 415.36 42.0604C405.64 44.6104 404.11 53.2604 396.13 57.1404C388.15 61.0204 378.58 46.2804 363.94 54.7304Z" fill="#C0C7F0"/>
<path id="Vector_82" d="M488.06 81.3105C487.249 80.8962 486.351 80.6802 485.44 80.6802C484.529 80.6802 483.631 80.8962 482.82 81.3105L445.61 102.791C444.16 103.631 444.15 104.991 445.61 105.791C446.422 106.203 447.32 106.417 448.23 106.417C449.141 106.417 450.038 106.203 450.85 105.791L488.07 84.3005C489.5 83.5005 489.5 82.1505 488.06 81.3105Z" fill="#E5E8FD"/>
<path id="Vector_83" d="M482.26 98.8006C481.448 98.3909 480.55 98.1775 479.64 98.1775C478.73 98.1775 477.833 98.3909 477.02 98.8006L458.75 109.351C457.3 110.191 457.29 111.551 458.75 112.351C459.561 112.765 460.459 112.981 461.37 112.981C462.281 112.981 463.179 112.765 463.99 112.351L482.26 101.801C483.69 101.001 483.7 99.6406 482.26 98.8006Z" fill="#E5E8FD"/>
<path id="Vector_84" opacity="0.7" d="M400.3 109.86C373.66 109.86 352.05 122.38 352.05 137.86C352.05 153.34 373.66 165.86 400.3 165.86C426.94 165.86 448.56 153.34 448.56 137.86C448.56 122.38 427 109.86 400.3 109.86ZM400.3 157.43C381.64 157.43 366.5 148.66 366.5 137.83C366.5 127 381.64 118.23 400.3 118.23C418.96 118.23 434.11 127.01 434.11 137.83C434.11 148.65 419 157.43 400.3 157.43Z" fill="#E5E8FD"/>
<path id="Vector_85" d="M371.22 125.231C375.207 125.231 378.44 123.355 378.44 121.041C378.44 118.727 375.207 116.851 371.22 116.851C367.233 116.851 364 118.727 364 121.041C364 123.355 367.233 125.231 371.22 125.231Z" fill="#C0C7F0"/>
<path id="Vector_86" d="M442 151.88C446.14 147.75 448.53 142.96 448.53 137.88C448.53 122.43 426.92 109.88 400.27 109.88C386.91 109.88 374.82 113.03 366.08 118.11L376.35 124C382.47 120.43 390.94 118.22 400.3 118.22C418.97 118.22 434.11 127 434.11 137.82C434.11 141.41 432.44 144.77 429.53 147.66L442 151.88Z" fill="#C0C7F0"/>
<path id="Vector_87" d="M435.79 153.971C439.778 153.971 443.01 152.095 443.01 149.781C443.01 147.467 439.778 145.591 435.79 145.591C431.803 145.591 428.57 147.467 428.57 149.781C428.57 152.095 431.803 153.971 435.79 153.971Z" fill="#C0C7F0"/>
<path id="Vector_88" d="M371.22 118.03C375.207 118.03 378.44 116.154 378.44 113.84C378.44 111.526 375.207 109.65 371.22 109.65C367.233 109.65 364 111.526 364 113.84C364 116.154 367.233 118.03 371.22 118.03Z" fill="#4649D4"/>
<path id="Vector_89" d="M442 144.68C446.14 140.55 448.53 135.76 448.53 130.63C448.53 115.18 426.92 102.63 400.27 102.63C386.91 102.63 374.82 105.78 366.08 110.86L376.32 116.78C382.44 113.21 390.91 111 400.27 111C418.94 111 434.08 119.78 434.08 130.6C434.08 134.19 432.41 137.6 429.5 140.44L442 144.68Z" fill="#4649D4"/>
<path id="Vector_90" d="M435.79 146.77C439.778 146.77 443.01 144.894 443.01 142.58C443.01 140.266 439.778 138.39 435.79 138.39C431.803 138.39 428.57 140.266 428.57 142.58C428.57 144.894 431.803 146.77 435.79 146.77Z" fill="#4649D4"/>
<path id="Vector_91" d="M371.22 118.03C375.207 118.03 378.44 116.154 378.44 113.84C378.44 111.526 375.207 109.65 371.22 109.65C367.233 109.65 364 111.526 364 113.84C364 116.154 367.233 118.03 371.22 118.03Z" fill="#392366"/>
<path id="Vector_92" d="M366.11 110.891L376.35 116.811C382.47 113.241 390.94 111.031 400.3 111.031C404.919 111.018 409.521 111.583 414 112.711L419.84 105.051C413.455 103.443 406.894 102.64 400.31 102.661C386.94 102.661 374.85 105.811 366.11 110.891Z" fill="#392366"/>
<path id="Vector_93" d="M416.93 113.05C420.917 113.05 424.15 111.174 424.15 108.86C424.15 106.546 420.917 104.67 416.93 104.67C412.942 104.67 409.71 106.546 409.71 108.86C409.71 111.174 412.942 113.05 416.93 113.05Z" fill="#392366"/>
<path id="Vector_94" d="M371.22 110.83C375.207 110.83 378.44 108.955 378.44 106.64C378.44 104.326 375.207 102.45 371.22 102.45C367.233 102.45 364 104.326 364 106.64C364 108.955 367.233 110.83 371.22 110.83Z" fill="#F67682"/>
<path id="Vector_95" d="M366.11 103.691L376.35 109.611C382.47 106.041 390.94 103.831 400.3 103.831C404.919 103.818 409.521 104.383 414 105.511L419.84 97.8506C413.455 96.2432 406.894 95.4403 400.31 95.4606C386.94 95.4606 374.85 98.6106 366.11 103.691Z" fill="#F67682"/>
<path id="Vector_96" d="M416.93 105.85C420.917 105.85 424.15 103.975 424.15 101.66C424.15 99.3464 420.917 97.4705 416.93 97.4705C412.942 97.4705 409.71 99.3464 409.71 101.66C409.71 103.975 412.942 105.85 416.93 105.85Z" fill="#F67682"/>
</g></g>
</g>
<defs>
<clipPath id="clip0">
<rect width="84" height="60" fill="white" transform="translate(256 60)"/>
</clipPath>
</defs>
</svg>
