<svg width="41" height="25" viewBox="0 0 41 25" xmlns="http://www.w3.org/2000/svg">
<path d="M34.2199 13H33.9999C34.2503 12.0544 34.2794 11.0639 34.0852 10.1052C33.891 9.14648 33.4786 8.2454 32.88 7.47177C32.2814 6.69815 31.5127 6.07277 30.6335 5.64412C29.7542 5.21547 28.7881 4.99507 27.8099 5C26.9358 4.99996 26.0711 5.18039 25.2699 5.53C24.1261 3.33397 22.2038 1.64391 19.8794 0.790674C17.555 -0.0625675 14.9958 -0.0175568 12.7029 0.916894C10.4099 1.85135 8.54823 3.60795 7.48232 5.84285C6.41641 8.07774 6.223 10.63 6.93995 13C6.12416 12.8743 5.29121 12.9183 4.49321 13.1293C3.6952 13.3402 2.9493 13.7135 2.30215 14.2259C1.65501 14.7382 1.12053 15.3786 0.732157 16.1069C0.343784 16.8353 0.109864 17.6359 0.0450285 18.4588C-0.0198072 19.2816 0.0858355 20.109 0.35535 20.8892C0.624864 21.6694 1.05245 22.3855 1.61137 22.9929C2.17029 23.6003 2.84852 24.0858 3.60365 24.4191C4.35877 24.7524 5.17454 24.9263 5.99995 24.93H34.2199C35.8112 24.93 37.3374 24.2979 38.4626 23.1726C39.5878 22.0474 40.2199 20.5213 40.2199 18.93C40.2199 17.3387 39.5878 15.8126 38.4626 14.6874C37.3374 13.5621 35.8112 12.93 34.2199 12.93V13Z"/>
</svg>
