<svg width="34" height="34" viewBox="0 0 34 34" xmlns="http://www.w3.org/2000/svg">
<path d="M19 13C18.9848 12.7569 18.9848 12.5131 19 12.27C17.6639 11.9099 16.2562 11.9099 14.92 12.27C14.962 12.5114 14.9887 12.7552 15 13C14.999 14.1458 14.7167 15.2739 14.178 16.2852C13.6392 17.2964 12.8604 18.16 11.91 18.8C14.143 19.7547 15.9522 21.4893 17 23.68C18.0454 21.491 19.8509 19.7567 22.08 18.8C21.1315 18.1588 20.3547 17.2948 19.8177 16.2836C19.2807 15.2724 18.9999 14.1449 19 13Z"/>
<path d="M26 20C28.1217 20 30.1566 20.8429 31.6569 22.3431C33.1571 23.8434 34 25.8783 34 28V31.36C34 31.9567 33.7629 32.529 33.341 32.951C32.919 33.3729 32.3467 33.61 31.75 33.61H20.25C19.6533 33.61 19.081 33.3729 18.659 32.951C18.2371 32.529 18 31.9567 18 31.36V28C18 25.8783 18.8429 23.8434 20.3431 22.3431C21.8434 20.8429 23.8783 20 26 20Z"/>
<path d="M8 20C10.1217 20 12.1566 20.8429 13.6569 22.3431C15.1571 23.8434 16 25.8783 16 28V31.36C16 31.9567 15.7629 32.529 15.341 32.951C14.919 33.3729 14.3467 33.61 13.75 33.61H2.25C1.65326 33.61 1.08097 33.3729 0.65901 32.951C0.237053 32.529 0 31.9567 0 31.36L0 28C0 25.8783 0.842855 23.8434 2.34315 22.3431C3.84344 20.8429 5.87827 20 8 20Z"/>
<path d="M26 18C28.7614 18 31 15.7614 31 13C31 10.2386 28.7614 8 26 8C23.2386 8 21 10.2386 21 13C21 15.7614 23.2386 18 26 18Z"/>
<path d="M8 18C10.7614 18 13 15.7614 13 13C13 10.2386 10.7614 8 8 8C5.23858 8 3 10.2386 3 13C3 15.7614 5.23858 18 8 18Z"/>
<path d="M17 10C19.7614 10 22 7.76142 22 5C22 2.23858 19.7614 0 17 0C14.2386 0 12 2.23858 12 5C12 7.76142 14.2386 10 17 10Z"/>
</svg>
