<svg width="35" height="34" viewBox="0 0 35 34" xmlns="http://www.w3.org/2000/svg">
<path d="M26.85 32.4702H7.95996" stroke-width="2" stroke-miterlimit="10" stroke-linecap="round"/>
<path d="M14.76 27.2402H20.05C20.5804 27.2402 21.0892 27.4509 21.4642 27.8259C21.8393 28.201 22.05 28.7097 22.05 29.2402V32.4802H12.76V29.2402C12.76 28.7097 12.9707 28.201 13.3458 27.8259C13.7209 27.4509 14.2296 27.2402 14.76 27.2402Z"/>
<path d="M29.93 0.000163616H4.93C4.28448 -0.00511691 3.6443 0.117469 3.04639 0.360849C2.44849 0.604229 1.90468 0.963587 1.44636 1.41819C0.988037 1.8728 0.624261 2.41365 0.376018 3.00956C0.127775 3.60546 -2.15948e-05 4.24462 2.73703e-09 4.89016V20.3502C2.73703e-09 21.6471 0.515195 22.8909 1.43225 23.8079C2.3493 24.725 3.59309 25.2402 4.89 25.2402H29.89C31.1869 25.2402 32.4307 24.725 33.3478 23.8079C34.2648 22.8909 34.78 21.6471 34.78 20.3502V4.89016C34.78 3.60016 34.2703 2.36239 33.3619 1.44648C32.4535 0.530566 31.22 0.0107158 29.93 0.000163616ZM32.37 7.27016C32.3698 7.41137 32.3286 7.54949 32.2515 7.66777C32.1744 7.78606 32.0646 7.87943 31.9355 7.93659C31.8063 7.99374 31.6634 8.01222 31.524 7.98978C31.3846 7.96734 31.2547 7.90495 31.15 7.81016L26.73 3.71016C26.6204 3.61053 26.5438 3.47994 26.5102 3.33572C26.4766 3.1915 26.4877 3.04047 26.5419 2.90269C26.5962 2.7649 26.691 2.64687 26.8139 2.56426C26.9368 2.48165 27.0819 2.43837 27.23 2.44016H29.74C30.4384 2.44281 31.1074 2.72212 31.6003 3.21693C32.0932 3.71174 32.37 4.38172 32.37 5.08016V7.27016Z"/>
</svg>
