<svg width="38" height="32" viewBox="0 0 38 32" fill="none" xmlns="http://www.w3.org/2000/svg">
<path d="M10.7 31H5.46999C4.85999 31 4.27497 30.7577 3.84364 30.3263C3.41231 29.895 3.16999 29.31 3.16999 28.7V15.29C3.16343 14.8897 3.26146 14.4947 3.45438 14.1439C3.6473 13.7931 3.92844 13.4988 4.26999 13.29L9.49999 10.14C9.85137 9.92503 10.254 9.80836 10.6659 9.80221C11.0778 9.79605 11.4838 9.90062 11.8414 10.105C12.1991 10.3094 12.4953 10.606 12.6991 10.964C12.9029 11.322 13.0068 11.7281 13 12.14V28.7C13 29.31 12.7577 29.895 12.3263 30.3263C11.895 30.7577 11.31 31 10.7 31Z" fill="#392366"/>
<path d="M32 0H19C18.2044 0 17.4413 0.31607 16.8787 0.87868C16.3161 1.44129 16 2.20435 16 3V31H35V3C35 2.20435 34.6839 1.44129 34.1213 0.87868C33.5587 0.31607 32.7956 0 32 0V0ZM30.5 26H20.5C20.1022 26 19.7206 25.842 19.4393 25.5607C19.158 25.2794 19 24.8978 19 24.5C19 24.1022 19.158 23.7206 19.4393 23.4393C19.7206 23.158 20.1022 23 20.5 23H30.5C30.8978 23 31.2794 23.158 31.5607 23.4393C31.842 23.7206 32 24.1022 32 24.5C32 24.8978 31.842 25.2794 31.5607 25.5607C31.2794 25.842 30.8978 26 30.5 26ZM30.5 20H20.5C20.1022 20 19.7206 19.842 19.4393 19.5607C19.158 19.2794 19 18.8978 19 18.5C19 18.1022 19.158 17.7206 19.4393 17.4393C19.7206 17.158 20.1022 17 20.5 17H30.5C30.8978 17 31.2794 17.158 31.5607 17.4393C31.842 17.7206 32 18.1022 32 18.5C32 18.8978 31.842 19.2794 31.5607 19.5607C31.2794 19.842 30.8978 20 30.5 20ZM30.5 14H20.5C20.1022 14 19.7206 13.842 19.4393 13.5607C19.158 13.2794 19 12.8978 19 12.5C19 12.1022 19.158 11.7206 19.4393 11.4393C19.7206 11.158 20.1022 11 20.5 11H30.5C30.8978 11 31.2794 11.158 31.5607 11.4393C31.842 11.7206 32 12.1022 32 12.5C32 12.8978 31.842 13.2794 31.5607 13.5607C31.2794 13.842 30.8978 14 30.5 14ZM30.5 8H20.5C20.1022 8 19.7206 7.84196 19.4393 7.56066C19.158 7.27936 19 6.89782 19 6.5C19 6.10218 19.158 5.72064 19.4393 5.43934C19.7206 5.15804 20.1022 5 20.5 5H30.5C30.8978 5 31.2794 5.15804 31.5607 5.43934C31.842 5.72064 32 6.10218 32 6.5C32 6.89782 31.842 7.27936 31.5607 7.56066C31.2794 7.84196 30.8978 8 30.5 8Z" fill="#392366"/>
<path d="M36.5 29H1.5C0.671573 29 0 29.6716 0 30.5C0 31.3284 0.671573 32 1.5 32H36.5C37.3284 32 38 31.3284 38 30.5C38 29.6716 37.3284 29 36.5 29Z" fill="#392366"/>
</svg>
