<svg width="27" height="42" viewBox="0 0 27 42" xmlns="http://www.w3.org/2000/svg">
<path d="M9.52003 8.76C10.5473 8.76 11.38 7.92725 11.38 6.9C11.38 5.87275 10.5473 5.04 9.52003 5.04C8.49279 5.04 7.66003 5.87275 7.66003 6.9C7.66003 7.92725 8.49279 8.76 9.52003 8.76Z"/>
<path d="M15.04 12.81C15.8242 12.81 16.46 12.1742 16.46 11.39C16.46 10.6058 15.8242 9.97 15.04 9.97C14.2558 9.97 13.62 10.6058 13.62 11.39C13.62 12.1742 14.2558 12.81 15.04 12.81Z"/>
<path d="M17.9 6.32C19.6452 6.32 21.06 4.90522 21.06 3.16C21.06 1.41478 19.6452 0 17.9 0C16.1548 0 14.74 1.41478 14.74 3.16C14.74 4.90522 16.1548 6.32 17.9 6.32Z"/>
<path fill-rule="evenodd" clip-rule="evenodd" d="M18.39 25.49L25.59 34.81C27.74 37.59 25.75 41.64 22.24 41.65H4.26C0.749997 41.65 -1.24 37.64 0.879997 34.85L8.21 25.18C8.57 24.71 8.76 24.13 8.76 23.54V19.28C8.76 18.74 8.59 18.21 8.29 17.76L7.47 16.54C7.08 15.97 7.49 15.21 8.17 15.21H8.76H17.82H18.41C19.09 15.21 19.49 15.98 19.11 16.54L18.29 17.75C17.98 18.2 17.82 18.73 17.82 19.27V23.83C17.82 24.43 18.02 25.01 18.39 25.49ZM21.13 38.02C21.53 38.54 22.27 38.64 22.79 38.24C23.31 37.84 23.41 37.1 23.01 36.58L17.61 29.56C16.58 30.35 16.38 31.84 17.18 32.88L21.13 38.02Z"/>
</svg>
