<svg width="38" height="35" viewBox="0 0 38 35" xmlns="http://www.w3.org/2000/svg">
<path d="M5.33 34.12H3C1.34 34.12 0 32.78 0 31.12V26.17C0 24.51 1.34 23.17 3 23.17H5.33C6.99 23.17 8.33 24.51 8.33 26.17V31.12C8.33 32.78 6.98 34.12 5.33 34.12Z" fill="rgb(51,51,51)"/>
<path d="M17.85 34.12H15.52C13.86 34.12 12.52 32.78 12.52 31.12V17.42C12.52 15.76 13.86 14.42 15.52 14.42H17.85C19.51 14.42 20.85 15.76 20.85 17.42V31.12C20.85 32.78 19.51 34.12 17.85 34.12Z" fill="rgb(51,51,51)"/>
<path d="M30.38 34.12H28.05C26.39 34.12 25.05 32.78 25.05 31.12V22.94C25.05 21.28 26.39 19.94 28.05 19.94H30.38C32.04 19.94 33.3801 21.28 33.3801 22.94V31.12C33.3801 32.78 32.04 34.12 30.38 34.12Z" fill="rgb(51,51,51)"/>
<path d="M30.38 16.96H28.05C26.39 16.96 25.05 15.62 25.05 13.96V9.23001C25.05 7.57001 26.39 6.23001 28.05 6.23001H30.38C32.04 6.23001 33.3801 7.57001 33.3801 9.23001V13.96C33.3801 15.62 32.04 16.96 30.38 16.96Z" fill="rgb(55,110,237)"/>
<path d="M35.76 9.16001H22.68C21.48 9.16001 20.88 7.71001 21.73 6.86001L28.27 0.380005C28.79 -0.139995 29.64 -0.139995 30.16 0.380005L36.7 6.86001C37.55 7.71001 36.96 9.16001 35.76 9.16001Z" fill="rgb(55,110,237)"/>
</svg>
