<svg width="40" height="42" viewBox="0 0 40 42" xmlns="http://www.w3.org/2000/svg">
<path fill-rule="evenodd" clip-rule="evenodd" d="M20.4274 3.48098C20.4277 4.03327 19.9803 4.48129 19.4281 4.48167C16.4446 4.48371 13.5116 5.25106 10.9095 6.71035C8.30733 8.16964 6.12304 10.2721 4.56547 12.8166C3.00789 15.3612 2.12912 18.2627 2.01318 21.2439C1.89723 24.225 2.54799 27.1861 3.90323 29.8439C5.25847 32.5018 7.27287 34.7675 9.75383 36.4245C12.2348 38.0815 15.0993 39.0743 18.0736 39.308C21.0478 39.5418 24.0323 39.0087 26.7416 37.7596C29.451 36.5105 31.7946 34.5873 33.5484 32.1738C33.8731 31.727 34.4984 31.628 34.9452 31.9527C35.392 32.2774 35.491 32.9027 35.1663 33.3495C33.2114 36.0398 30.599 38.1836 27.579 39.5759C24.5589 40.9682 21.2322 41.5625 17.9169 41.3019C14.6015 41.0413 11.4085 39.9346 8.64303 38.0876C5.87756 36.2406 3.63215 33.7151 2.12149 30.7524C0.610834 27.7898 -0.114553 24.4892 0.0146886 21.1662C0.14393 17.8431 1.12348 14.6088 2.85967 11.7725C4.59587 8.93611 7.03065 6.59258 9.93122 4.96594C12.8318 3.3393 16.1011 2.48394 19.4267 2.48167C19.979 2.48129 20.427 2.9287 20.4274 3.48098Z" fill="rgb(51,51,51)"/>
<path fill-rule="evenodd" clip-rule="evenodd" d="M37.62 25.1268C38.1584 25.2497 38.4952 25.7859 38.3722 26.3243C38.0889 27.5647 37.6824 28.7737 37.1587 29.9333C36.9314 30.4366 36.339 30.6604 35.8357 30.433C35.3324 30.2057 35.1086 29.6134 35.336 29.1101C35.8048 28.0719 36.1688 26.9895 36.4224 25.879C36.5454 25.3406 37.0816 25.0038 37.62 25.1268Z" fill="rgb(51,51,51)"/>
<path fill-rule="evenodd" clip-rule="evenodd" d="M32.3273 21.9317C32.3273 29.0561 26.5518 34.8317 19.4273 34.8317C12.3029 34.8317 6.52734 29.0561 6.52734 21.9317C6.52734 14.8072 12.3029 9.03166 19.4273 9.03166C26.5518 9.03166 32.3273 14.8072 32.3273 21.9317ZM15.9873 26.4817L12.9873 22.6217C12.8676 22.4857 12.8035 22.3095 12.808 22.1284C12.8124 21.9472 12.8849 21.7744 13.0112 21.6444C13.1374 21.5144 13.308 21.4367 13.4889 21.427C13.6699 21.4172 13.8478 21.476 13.9873 21.5917L16.4773 23.4517C16.6056 23.5482 16.7618 23.6004 16.9223 23.6004C17.0829 23.6004 17.239 23.5482 17.3673 23.4517L24.7273 17.3217C24.8659 17.2277 25.0329 17.185 25.1995 17.2008C25.3662 17.2167 25.5221 17.2901 25.6405 17.4085C25.7589 17.5268 25.8323 17.6828 25.8482 17.8495C25.864 18.0161 25.8213 18.1831 25.7273 18.3217L18.4873 26.5517C18.3293 26.7303 18.1339 26.872 17.9151 26.9669C17.6963 27.0618 17.4594 27.1076 17.221 27.1009C16.9825 27.0942 16.7485 27.0353 16.5353 26.9283C16.3222 26.8213 16.1351 26.6688 15.9873 26.4817Z" fill="rgb(55,110,237)"/>
<path d="M19.4274 1.14167V5.89167C19.4288 6.08401 19.4793 6.27281 19.5741 6.44019C19.6689 6.60756 19.8049 6.74797 19.9691 6.84811C20.1333 6.94825 20.3204 7.00481 20.5126 7.01243C20.7048 7.02005 20.8958 6.97848 21.0674 6.89167L25.8374 4.52167C26.0196 4.4258 26.1722 4.28198 26.2786 4.10574C26.385 3.9295 26.4412 3.72754 26.4412 3.52167C26.4412 3.31579 26.385 3.11383 26.2786 2.93759C26.1722 2.76136 26.0196 2.61754 25.8374 2.52167L21.0674 0.121666C20.8943 0.0340749 20.7015 -0.00744826 20.5076 0.00109612C20.3137 0.00964049 20.1254 0.0679645 19.9606 0.17045C19.7958 0.272935 19.6602 0.416127 19.5668 0.586233C19.4734 0.756339 19.4254 0.947625 19.4274 1.14167Z" fill="rgb(51,51,51)"/>
<path d="M38.0774 23.3517C38.7677 23.3517 39.3274 22.792 39.3274 22.1017C39.3274 21.4113 38.7677 20.8517 38.0774 20.8517C37.387 20.8517 36.8274 21.4113 36.8274 22.1017C36.8274 22.792 37.387 23.3517 38.0774 23.3517Z" fill="rgb(51,51,51)"/>
</svg>
