<svg width="35" height="38" viewBox="0 0 35 38" xmlns="http://www.w3.org/2000/svg">
<path d="M7.95 26.05H4C1.79 26.05 0 24.26 0 22.05V18.1C0 15.89 1.79 14.1 4 14.1H7.95C10.16 14.1 11.95 15.89 11.95 18.1V22.05C11.95 24.26 10.16 26.05 7.95 26.05Z"/>
<path d="M25.36 37.3H21.41C19.2 37.3 17.41 35.51 17.41 33.3V29.35C17.41 27.14 19.2 25.35 21.41 25.35H25.36C27.57 25.35 29.36 27.14 29.36 29.35V33.3C29.36 35.51 27.57 37.3 25.36 37.3Z"/>
<path fill-rule="evenodd" clip-rule="evenodd" d="M11.03 9.44C8.79097 9.44 6.96997 11.2536 6.96997 13.5V21.44C6.96997 21.9923 6.52226 22.44 5.96997 22.44C5.41769 22.44 4.96997 21.9923 4.96997 21.44V13.5C4.96997 10.1464 7.68897 7.44 11.03 7.44C11.5823 7.44 12.03 7.88771 12.03 8.44C12.03 8.99228 11.5823 9.44 11.03 9.44Z"/>
<path fill-rule="evenodd" clip-rule="evenodd" d="M21.75 16.88H30.63C32.84 16.88 34.63 15.09 34.63 12.88V4C34.63 1.79 32.84 0 30.63 0H21.75C19.54 0 17.75 1.79 17.75 4V12.88C17.75 15.09 19.54 16.88 21.75 16.88ZM26.2 4.63C26.7522 4.63 27.2 5.07772 27.2 5.63V7.44H29.01C29.5623 7.44 30.01 7.88771 30.01 8.44C30.01 8.99228 29.5623 9.44 29.01 9.44H27.2V11.25C27.2 11.8023 26.7522 12.25 26.2 12.25C25.6477 12.25 25.2 11.8023 25.2 11.25V9.44H23.38C22.8277 9.44 22.38 8.99228 22.38 8.44C22.38 7.88771 22.8277 7.44 23.38 7.44H25.2V5.63C25.2 5.07772 25.6477 4.63 26.2 4.63Z"/>
<path fill-rule="evenodd" clip-rule="evenodd" d="M5.96997 21.57C6.52226 21.57 6.96997 22.0177 6.96997 22.57V26.32C6.96997 28.529 8.76355 30.33 10.98 30.33H23.38C23.9323 30.33 24.38 30.7777 24.38 31.33C24.38 31.8823 23.9323 32.33 23.38 32.33H10.98C7.65639 32.33 4.96997 29.631 4.96997 26.32V22.57C4.96997 22.0177 5.41769 21.57 5.96997 21.57Z"/>
<path d="M14.66 9.81C15.4167 9.81 16.03 9.19663 16.03 8.44C16.03 7.68337 15.4167 7.07 14.66 7.07C13.9034 7.07 13.29 7.68337 13.29 8.44C13.29 9.19663 13.9034 9.81 14.66 9.81Z"/>
</svg>
