<svg width="150" height="115" viewBox="0 0 150 115" fill="none" xmlns="http://www.w3.org/2000/svg">
<path d="M25.2522 43.2823C29.9522 45.9966 29.9762 50.3923 25.3002 53.1065C20.6243 55.8208 13.0339 55.8208 8.34201 53.1065C3.65007 50.3923 3.61803 45.9966 8.28595 43.2823C12.9539 40.568 20.5523 40.568 25.2522 43.2823Z" fill="rgba(54,81,179,1)"/>
<path d="M73.4446 71.1217C78.1445 73.836 78.1686 78.2397 73.5006 80.9459C68.8327 83.6522 61.2263 83.6602 56.5264 80.9459L32.5703 67.1183C27.8623 64.396 27.8463 60.0004 32.5142 57.2861C37.1821 54.5718 44.7805 54.5718 49.4805 57.2861L73.4446 71.1217ZM36.8058 64.6603C38.1197 65.3315 39.574 65.6814 41.0494 65.6814C42.5248 65.6814 43.9791 65.3315 45.293 64.6603C47.6229 63.3071 47.6149 61.1053 45.293 59.7521C43.9805 59.081 42.5275 58.7311 41.0534 58.7311C39.5793 58.7311 38.1263 59.081 36.8138 59.7521C34.4759 61.1053 34.4919 63.3071 36.8138 64.6603" fill="rgba(54,81,179,1)"/>
<path d="M129.548 108.393C131.894 109.754 131.95 111.956 129.548 113.309C128.233 113.978 126.779 114.327 125.304 114.327C123.829 114.327 122.375 113.978 121.06 113.309L96.8241 99.3134C94.4781 97.9602 94.4621 95.7584 96.8241 94.4053C98.1365 93.7341 99.5896 93.3842 101.064 93.3842C102.538 93.3842 103.991 93.7341 105.303 94.4053L129.548 108.393Z" fill="rgba(54,81,179,1)"/>
<path d="M91.332 87.7821C91.3373 85.8629 88.6567 84.2997 85.3447 84.2904C82.0326 84.2812 79.3433 85.8294 79.338 87.7486C79.3326 89.6677 82.0132 91.231 85.3253 91.2403C88.6373 91.2495 91.3266 89.7012 91.332 87.7821Z" fill="#F67682"/>
<path d="M110.915 42.1333C113.269 43.4864 113.277 45.6883 110.915 47.0414C109.603 47.7125 108.15 48.0625 106.676 48.0625C105.202 48.0625 103.749 47.7125 102.436 47.0414L19.6786 -0.750751C17.3246 -2.11189 17.2765 -4.31375 19.6786 -5.66689C20.991 -6.33803 22.444 -6.68799 23.9181 -6.68799C25.3922 -6.68799 26.8452 -6.33803 28.1577 -5.66689L110.915 42.1333Z" fill="rgba(54,81,179,1)"/>
<path d="M178.46 76.2259C183.16 78.9402 183.184 83.3439 178.508 86.0501C173.832 88.7564 166.242 88.7724 161.55 86.0501L118.762 61.3494C114.062 58.6351 114.038 54.2314 118.706 51.5172C123.374 48.8029 130.98 48.8029 135.68 51.5172L178.46 76.2259ZM165.761 83.5601C167.076 84.2275 168.53 84.5754 170.005 84.5754C171.48 84.5754 172.933 84.2275 174.248 83.5601C176.578 82.1989 176.57 80.0051 174.248 78.6439C172.935 77.9765 171.482 77.6287 170.009 77.6287C168.536 77.6287 167.083 77.9765 165.769 78.6439C163.431 80.0051 163.447 82.1989 165.769 83.5601" fill="rgba(54,81,179,1)"/>
</svg>
