<svg viewBox="0 0 700 394" fill="none" xmlns="http://www.w3.org/2000/svg">
<path d="M410.527 391.113C404.657 387.723 404.627 382.223 410.457 378.843C416.287 375.463 425.787 375.443 431.647 378.843C437.507 382.243 437.557 387.733 431.717 391.123C425.877 394.513 416.377 394.503 410.527 391.113Z" fill="rgba(54,81,179,1)"/>
<path d="M280.267 309.783C277.337 308.093 277.317 305.343 280.267 303.653C281.907 302.817 283.722 302.381 285.562 302.381C287.403 302.381 289.218 302.817 290.857 303.653L321.097 321.123C324.037 322.823 324.097 325.573 321.097 327.263C319.456 328.099 317.64 328.534 315.797 328.534C313.955 328.534 312.139 328.099 310.497 327.263L280.267 309.783Z" fill="rgb(42,27,76)"/>
<path d="M350.378 356.363C344.508 352.973 344.468 347.473 350.298 344.083C356.128 340.693 365.628 340.693 371.498 344.083L401.378 361.363C407.258 364.753 407.288 370.253 401.448 373.643C395.608 377.033 386.138 377.033 380.258 373.643L350.378 356.363ZM396.128 364.423C394.485 363.589 392.669 363.154 390.828 363.154C388.986 363.154 387.17 363.589 385.528 364.423C382.618 366.123 382.638 368.873 385.528 370.563C387.167 371.401 388.981 371.838 390.823 371.838C392.664 371.838 394.478 371.401 396.118 370.563C399.038 368.863 399.028 366.123 396.118 364.423" fill="rgb(42,27,76)"/>
<path d="M330.188 338.603C327.258 336.913 327.238 334.163 330.188 332.473C331.827 331.634 333.642 331.197 335.483 331.197C337.324 331.197 339.138 331.634 340.778 332.473C343.718 334.163 343.778 336.913 340.778 338.613C339.136 339.445 337.322 339.878 335.481 339.877C333.641 339.875 331.827 339.438 330.188 338.603V338.603Z" fill="rgb(42,27,76)"/>
<path d="M184.975 256.653C182.045 254.963 182.025 252.213 184.975 250.523C186.617 249.687 188.433 249.251 190.275 249.251C192.117 249.251 193.934 249.687 195.575 250.523C198.515 252.223 198.525 254.973 195.575 256.663C193.933 257.499 192.117 257.935 190.274 257.933C188.431 257.931 186.615 257.493 184.975 256.653V256.653Z" fill="rgb(42,27,76)"/>
<path d="M2.20501 151.143C-0.72499 149.443 -0.74499 146.703 2.20501 145.003C3.84419 144.164 5.65899 143.727 7.50005 143.727C9.34112 143.727 11.1559 144.164 12.795 145.003L171.585 236.653C174.515 238.343 174.585 241.093 171.585 242.793C169.944 243.626 168.13 244.061 166.29 244.061C164.45 244.061 162.636 243.626 160.995 242.793L2.20501 151.143Z" fill="rgb(42,27,76)"/>
<path d="M262.475 41.1026C256.595 37.7126 256.575 32.2126 262.405 28.8326C268.235 25.4526 277.725 25.4426 283.595 28.8326L337.045 59.6526C342.915 63.0426 342.945 68.5326 337.115 71.9226C331.285 75.3126 321.795 75.3126 315.925 71.9226L262.475 41.1026ZM278.325 31.9026C276.685 31.0691 274.87 30.6346 273.03 30.6346C271.19 30.6346 269.376 31.0691 267.735 31.9026C264.815 33.6026 264.835 36.3426 267.735 38.0426C269.378 38.8762 271.193 39.3106 273.035 39.3106C274.877 39.3106 276.693 38.8762 278.335 38.0426C281.255 36.3526 281.235 33.6026 278.335 31.9026" fill="rgba(54,81,179,1)"/>
<path d="M232.215 23.6526C226.345 20.2626 226.315 14.7626 232.145 11.3726C237.975 7.98262 247.465 7.99262 253.335 11.3726C259.205 14.7526 259.235 20.2526 253.405 23.6426C247.575 27.0326 238.045 27.0226 232.215 23.6526Z" fill="rgba(54,81,179,1)"/>
<path d="M483.926 161.032C483.919 163.429 487.267 165.381 491.404 165.393C495.541 165.404 498.899 163.471 498.906 161.074C498.913 158.677 495.565 156.725 491.428 156.713C487.292 156.701 483.933 158.635 483.926 161.032Z" fill="rgba(54,81,179,1)"/>
<path d="M456.815 153.303C450.945 149.913 450.915 144.423 456.745 141.033C462.575 137.643 472.065 137.643 477.935 141.033C483.805 144.423 483.835 149.913 478.005 153.303C472.175 156.693 462.685 156.653 456.815 153.303Z" fill="rgba(54,81,179,1)"/>
<path d="M346.615 83.5626C343.685 81.8726 343.665 79.1226 346.615 77.4326C348.254 76.5944 350.069 76.1573 351.91 76.1573C353.751 76.1573 355.566 76.5944 357.205 77.4326C360.145 79.1226 360.205 81.8726 357.205 83.5626C355.565 84.3993 353.751 84.8354 351.91 84.8354C350.069 84.8354 348.255 84.3993 346.615 83.5626Z" fill="#FFADB6"/>
<path d="M504.175 174.533C501.245 172.833 501.225 170.093 504.175 168.393C505.816 167.559 507.63 167.125 509.47 167.125C511.31 167.125 513.124 167.559 514.765 168.393C517.695 170.093 517.715 172.843 514.765 174.533C513.124 175.365 511.31 175.798 509.47 175.798C507.63 175.798 505.816 175.365 504.175 174.533V174.533Z" fill="rgba(54,81,179,1)"/>
<path d="M366.265 94.9127C363.335 93.2127 363.265 90.4627 366.265 88.7727C367.906 87.9392 369.72 87.5047 371.56 87.5047C373.4 87.5047 375.214 87.9392 376.855 88.7727L407.105 106.253C410.035 107.943 410.055 110.693 407.105 112.393C405.464 113.226 403.65 113.661 401.81 113.661C399.97 113.661 398.156 113.226 396.515 112.393L366.265 94.9127Z" fill="#FFADB6"/>
<path d="M523.535 185.653C520.595 183.963 520.535 181.213 523.535 179.513C525.177 178.677 526.993 178.241 528.835 178.241C530.677 178.241 532.493 178.677 534.135 179.513L550.135 188.763C553.075 190.453 553.085 193.203 550.135 194.893C548.496 195.731 546.681 196.168 544.84 196.168C542.999 196.168 541.184 195.731 539.545 194.893L523.535 185.653Z" fill="rgba(54,81,179,1)"/>
<path d="M578.855 217.653C575.925 215.963 575.855 213.213 578.855 211.523C580.494 210.684 582.309 210.247 584.15 210.247C585.991 210.247 587.806 210.684 589.445 211.523L696.865 273.523C699.795 275.213 699.815 277.963 696.865 279.653C695.226 280.491 693.411 280.928 691.57 280.928C689.729 280.928 687.914 280.491 686.275 279.653L578.855 217.653Z" fill="rgba(54,81,179,1)"/>
<path d="M476.405 253.423C470.535 250.033 470.505 244.543 476.345 241.153C482.185 237.763 491.665 237.763 497.525 241.153C503.385 244.543 503.425 250.033 497.595 253.423C491.765 256.813 482.275 256.813 476.405 253.423Z" fill="#FFADB6"/>
<path d="M416.215 218.653C410.345 215.263 410.315 209.763 416.145 206.383C421.975 203.003 431.475 202.993 437.345 206.383L467.265 223.653C473.145 227.053 473.165 232.543 467.335 235.933C461.505 239.323 452.015 239.323 446.145 235.933L416.215 218.653ZM461.975 226.723C460.334 225.884 458.518 225.447 456.675 225.447C454.832 225.447 453.016 225.884 451.375 226.723C448.465 228.413 448.475 231.163 451.375 232.853C453.014 233.691 454.829 234.128 456.67 234.128C458.511 234.128 460.326 233.691 461.965 232.853C464.885 231.163 464.865 228.413 461.965 226.723" fill="rgba(54,81,179,1)"/>
<path d="M346.145 172.103C343.215 170.403 343.145 167.653 346.145 165.963C347.787 165.127 349.603 164.691 351.445 164.691C353.287 164.691 355.103 165.127 356.745 165.963L387.015 183.443C389.945 185.133 389.965 187.883 387.015 189.573C385.376 190.411 383.561 190.848 381.72 190.848C379.879 190.848 378.064 190.411 376.425 189.573L346.145 172.103Z" fill="rgba(54,81,179,1)"/>
<path d="M393.875 197.845C393.868 200.241 397.216 202.194 401.352 202.205C405.489 202.217 408.848 200.283 408.854 197.886C408.861 195.489 405.513 193.537 401.377 193.525C397.24 193.514 393.881 195.448 393.875 197.845Z" fill="rgba(54,81,179,1)"/>
<path d="M273.185 129.973C270.255 128.283 270.235 125.533 273.185 123.843C274.824 123.004 276.639 122.567 278.48 122.567C280.321 122.567 282.136 123.004 283.775 123.843C286.715 125.533 286.775 128.283 283.775 129.983C282.134 130.815 280.319 131.249 278.479 131.247C276.639 131.245 274.825 130.808 273.185 129.973V129.973Z" fill="#FFAE6C"/>
<path d="M147.475 57.3926C144.535 55.7026 144.525 52.9526 147.475 51.2626C149.114 50.4244 150.929 49.9873 152.77 49.9873C154.611 49.9873 156.426 50.4244 158.065 51.2626L261.425 110.953C264.365 112.653 264.425 115.403 261.425 117.093C259.786 117.931 257.971 118.368 256.13 118.368C254.289 118.368 252.474 117.931 250.835 117.093L147.475 57.3926Z" fill="#FFAE6C"/>
<path d="M63.1151 14.8126C57.2451 11.4226 57.2151 5.92261 63.0551 2.54261C68.8951 -0.837393 78.3751 -0.857392 84.2351 2.54261L137.675 33.3926C143.545 36.7826 143.575 42.2826 137.745 45.6726C131.915 49.0626 122.415 49.0626 116.545 45.6726L63.1151 14.8126ZM78.9751 5.65259C77.3327 4.81898 75.5169 4.38453 73.6751 4.38453C71.8333 4.38453 70.0174 4.81898 68.3751 5.65259C65.4651 7.35259 65.4751 10.0926 68.3751 11.7926C70.0157 12.6261 71.8299 13.0606 73.6701 13.0606C75.5103 13.0606 77.3245 12.6261 78.9651 11.7926C81.8851 10.0926 81.8651 7.35259 78.9651 5.65259" fill="rgba(54,81,179,1)"/>
<path d="M108.195 123.523C105.265 121.833 105.245 119.083 108.195 117.393C109.836 116.554 111.652 116.117 113.495 116.117C115.338 116.117 117.154 116.554 118.795 117.393C121.725 119.083 121.745 121.833 118.795 123.533C117.153 124.367 115.336 124.801 113.494 124.799C111.652 124.798 109.836 124.36 108.195 123.523Z" fill="rgba(54,81,179,1)"/>
<path d="M242.695 207.293C236.825 203.903 236.785 198.413 242.625 195.023C248.465 191.633 257.945 191.633 263.815 195.023L401.245 274.363C407.115 277.753 407.135 283.253 401.305 286.643C395.475 290.033 385.995 290.023 380.125 286.643L242.695 207.293ZM258.545 198.093C256.903 197.259 255.087 196.825 253.245 196.825C251.403 196.825 249.587 197.259 247.945 198.093C245.035 199.793 245.045 202.543 247.945 204.233C249.587 205.069 251.403 205.504 253.245 205.504C255.087 205.504 256.903 205.069 258.545 204.233C261.455 202.543 261.445 199.793 258.545 198.093Z" fill="rgba(54,81,179,1)"/>
<path d="M128.925 135.493C125.985 133.803 125.925 131.053 128.925 129.353C130.567 128.519 132.383 128.085 134.225 128.085C136.067 128.085 137.883 128.519 139.525 129.353L182.525 154.193C185.455 155.883 185.465 158.633 182.525 160.333C180.884 161.166 179.07 161.601 177.23 161.601C175.39 161.601 173.576 161.166 171.935 160.333L128.925 135.493Z" fill="rgba(54,81,179,1)"/>
<path d="M410.385 304.113C404.515 300.723 404.475 295.223 410.305 291.833C416.135 288.443 425.635 288.443 431.505 291.833C437.375 295.223 437.395 300.723 431.565 304.113C425.735 307.503 416.255 307.493 410.385 304.113Z" fill="rgba(54,81,179,1)"/>
<path d="M190.405 170.993C187.475 169.293 187.455 166.553 190.405 164.853C192.047 164.019 193.863 163.584 195.705 163.584C197.547 163.584 199.363 164.019 201.005 164.853L213.485 172.063C216.415 173.753 216.425 176.503 213.485 178.203C211.844 179.036 210.03 179.47 208.19 179.47C206.35 179.47 204.536 179.036 202.895 178.203L190.405 170.993Z" fill="rgba(54,81,179,1)"/>
<path d="M441.185 315.773C438.255 314.083 438.235 311.333 441.185 309.643C442.825 308.807 444.639 308.371 446.48 308.371C448.321 308.371 450.135 308.807 451.775 309.643L482.045 327.113C484.985 328.813 484.995 331.563 482.045 333.253C480.404 334.091 478.588 334.528 476.745 334.528C474.902 334.528 473.086 334.091 471.445 333.253L441.185 315.773Z" fill="rgba(54,81,179,1)"/>
<path d="M420.375 37.3526C417.445 35.6526 417.435 32.9026 420.375 31.2126C422.014 30.3744 423.829 29.9373 425.67 29.9373C427.511 29.9373 429.326 30.3744 430.965 31.2126L443.445 38.4126C446.375 40.1126 446.445 42.8526 443.445 44.5526C441.805 45.3885 439.991 45.8242 438.15 45.8242C436.31 45.8242 434.495 45.3885 432.855 44.5526L420.375 37.3526Z" fill="rgba(54,81,179,1)"/>
<path d="M452.515 55.9026C449.575 54.2026 449.565 51.4526 452.515 49.7626C454.154 48.9244 455.969 48.4873 457.81 48.4873C459.651 48.4873 461.466 48.9244 463.105 49.7626C466.035 51.4526 466.055 54.2026 463.105 55.8926C461.466 56.73 459.652 57.1674 457.811 57.1692C455.971 57.1709 454.156 56.7369 452.515 55.9026V55.9026Z" fill="rgba(54,81,179,1)"/>
</svg>
