<svg width="64" height="64" viewBox="0 0 64 64" fill="none" xmlns="http://www.w3.org/2000/svg">
<rect width="64" height="64" rx="16" fill="#3A3DC2"/>
<g clip-path="url(#clip0)">
<path d="M46.2201 31H46.0001C46.2504 30.0544 46.2796 29.0639 46.0854 28.1052C45.8911 27.1465 45.4788 26.2454 44.8802 25.4718C44.2816 24.6982 43.5129 24.0728 42.6336 23.6441C41.7544 23.2155 40.7882 22.9951 39.8101 23C38.9359 23 38.0712 23.1804 37.2701 23.53C36.1262 21.334 34.204 19.6439 31.8795 18.7907C29.5551 17.9375 26.9959 17.9825 24.703 18.9169C22.41 19.8514 20.5483 21.608 19.4824 23.8429C18.4165 26.0778 18.2231 28.63 18.9401 31C18.1243 30.8744 17.2913 30.9184 16.4933 31.1293C15.6953 31.3402 14.9494 31.7135 14.3023 32.2259C13.6551 32.7383 13.1207 33.3786 12.7323 34.107C12.3439 34.8353 12.11 35.6359 12.0452 36.4588C11.9803 37.2816 12.086 38.109 12.3555 38.8892C12.625 39.6694 13.0526 40.3855 13.6115 40.9929C14.1704 41.6003 14.8486 42.0858 15.6038 42.4191C16.3589 42.7525 17.1747 42.9264 18.0001 42.93H46.2201C47.8114 42.93 49.3375 42.2979 50.4627 41.1727C51.5879 40.0474 52.2201 38.5213 52.2201 36.93C52.2201 35.3387 51.5879 33.8126 50.4627 32.6874C49.3375 31.5622 47.8114 30.93 46.2201 30.93V31Z" fill="white"/>
</g>
<defs>
<clipPath id="clip0">
<rect width="40.2" height="24.93" fill="white" transform="translate(12 18)"/>
</clipPath>
</defs>
</svg>
