<svg width="64" height="64" viewBox="0 0 64 64" fill="none" xmlns="http://www.w3.org/2000/svg">
<rect width="64" height="64" rx="16" fill="#F5F6FC"/>
<g clip-path="url(#clip0)">
<path d="M18.33 48.12H16C14.34 48.12 13 46.78 13 45.12V40.17C13 38.51 14.34 37.17 16 37.17H18.33C19.99 37.17 21.33 38.51 21.33 40.17V45.12C21.33 46.78 19.98 48.12 18.33 48.12Z" fill="#392366"/>
<path d="M30.85 48.12H28.52C26.86 48.12 25.52 46.78 25.52 45.12V31.42C25.52 29.76 26.86 28.42 28.52 28.42H30.85C32.51 28.42 33.85 29.76 33.85 31.42V45.12C33.85 46.78 32.51 48.12 30.85 48.12Z" fill="#392366"/>
<path d="M43.38 48.12H41.05C39.39 48.12 38.05 46.78 38.05 45.12V36.94C38.05 35.28 39.39 33.94 41.05 33.94H43.38C45.04 33.94 46.3801 35.28 46.3801 36.94V45.12C46.3801 46.78 45.04 48.12 43.38 48.12Z" fill="#392366"/>
<path d="M43.38 30.96H41.05C39.39 30.96 38.05 29.62 38.05 27.96V23.23C38.05 21.57 39.39 20.23 41.05 20.23H43.38C45.04 20.23 46.3801 21.57 46.3801 23.23V27.96C46.3801 29.62 45.04 30.96 43.38 30.96Z" fill="#392366"/>
<path d="M48.76 23.16H35.68C34.48 23.16 33.88 21.71 34.73 20.86L41.27 14.38C41.79 13.86 42.64 13.86 43.16 14.38L49.7 20.86C50.55 21.71 49.96 23.16 48.76 23.16Z" fill="#392366"/>
</g>
<defs>
<clipPath id="clip0">
<rect width="37.1" height="34.12" fill="white" transform="translate(13 14)"/>
</clipPath>
</defs>
</svg>
