<svg width="64" height="64" viewBox="0 0 64 64" fill="none" xmlns="http://www.w3.org/2000/svg">
<rect width="64" height="64" rx="16" fill="#F5F6FC"/>
<g clip-path="url(#clip0)">
<path d="M28.5202 17.76C29.5474 17.76 30.3802 16.9272 30.3802 15.9C30.3802 14.8727 29.5474 14.04 28.5202 14.04C27.4929 14.04 26.6602 14.8727 26.6602 15.9C26.6602 16.9272 27.4929 17.76 28.5202 17.76Z" fill="#392366"/>
<path d="M34.0401 21.81C34.8244 21.81 35.4601 21.1742 35.4601 20.39C35.4601 19.6057 34.8244 18.97 34.0401 18.97C33.2559 18.97 32.6201 19.6057 32.6201 20.39C32.6201 21.1742 33.2559 21.81 34.0401 21.81Z" fill="#392366"/>
<path d="M36.9002 15.32C38.6455 15.32 40.0602 13.9052 40.0602 12.16C40.0602 10.4148 38.6455 9 36.9002 9C35.155 9 33.7402 10.4148 33.7402 12.16C33.7402 13.9052 35.155 15.32 36.9002 15.32Z" fill="#392366"/>
<path d="M44.5901 43.81L37.3901 34.49C37.0201 34.01 36.8201 33.43 36.8201 32.83V28.27C36.8201 27.73 36.9801 27.2 37.2901 26.75L38.1101 25.54C38.4901 24.98 38.0901 24.21 37.4101 24.21H36.8201H27.7601H27.1701C26.4901 24.21 26.0801 24.97 26.4701 25.54L27.2901 26.76C27.5901 27.21 27.7601 27.74 27.7601 28.28V32.54C27.7601 33.13 27.5701 33.71 27.2101 34.18L19.8801 43.85C17.7601 46.64 19.7501 50.65 23.2601 50.65H41.2401C44.7501 50.64 46.7401 46.59 44.5901 43.81Z" fill="#392366"/>
<path d="M41.7902 47.24C41.2702 47.64 40.5302 47.54 40.1302 47.02L36.1802 41.88C35.3802 40.84 35.5802 39.35 36.6102 38.56L42.0102 45.58C42.4102 46.1 42.3102 46.84 41.7902 47.24Z" fill="white"/>
</g>
<defs>
<clipPath id="clip0">
<rect width="26.48" height="41.64" fill="white" transform="translate(19 9)"/>
</clipPath>
</defs>
</svg>
