<svg width="64" height="64" viewBox="0 0 64 64" fill="none" xmlns="http://www.w3.org/2000/svg">
<rect width="64" height="64" rx="16" fill="#F5F6FC"/>
<g clip-path="url(#clip0)">
<path d="M44.63 30.88H35.75C33.54 30.88 31.75 29.09 31.75 26.88V18C31.75 15.79 33.54 14 35.75 14H44.63C46.84 14 48.63 15.79 48.63 18V26.88C48.63 29.09 46.84 30.88 44.63 30.88Z" fill="#392366"/>
<path d="M21.95 40.05H18C15.79 40.05 14 38.26 14 36.05V32.1C14 29.89 15.79 28.1 18 28.1H21.95C24.16 28.1 25.95 29.89 25.95 32.1V36.05C25.95 38.26 24.16 40.05 21.95 40.05Z" fill="#392366"/>
<path d="M39.3599 51.3H35.4099C33.1999 51.3 31.4099 49.51 31.4099 47.3V43.35C31.4099 41.14 33.1999 39.35 35.4099 39.35H39.3599C41.5699 39.35 43.3599 41.14 43.3599 43.35V47.3C43.3599 49.51 41.5699 51.3 39.3599 51.3Z" fill="#392366"/>
<path d="M19.97 35.44V27.5C19.97 24.7 22.24 22.44 25.03 22.44" stroke="#392366" stroke-width="2" stroke-miterlimit="10" stroke-linecap="round"/>
<path d="M37.3799 22.44H43.0099" stroke="white" stroke-width="2" stroke-miterlimit="10" stroke-linecap="round"/>
<path d="M40.2 19.63V25.25" stroke="white" stroke-width="2" stroke-miterlimit="10" stroke-linecap="round"/>
<path d="M19.97 36.57V40.32C19.97 43.08 22.21 45.33 24.98 45.33H37.38" stroke="#392366" stroke-width="2" stroke-miterlimit="10" stroke-linecap="round"/>
<path d="M28.66 23.81C29.4167 23.81 30.03 23.1966 30.03 22.44C30.03 21.6834 29.4167 21.07 28.66 21.07C27.9034 21.07 27.29 21.6834 27.29 22.44C27.29 23.1966 27.9034 23.81 28.66 23.81Z" fill="#392366"/>
</g>
<defs>
<clipPath id="clip0">
<rect width="34.63" height="37.3" fill="white" transform="translate(14 14)"/>
</clipPath>
</defs>
</svg>
