<svg width="35" height="40" viewBox="0 0 35 40" fill="none" xmlns="http://www.w3.org/2000/svg">
<g clip-path="url(#clip0)">
<path fill-rule="evenodd" clip-rule="evenodd" d="M34.5577 30C34.8333 29.5182 35.0032 28.9714 35.0032 28.4831V11.5169C35.0032 11.0286 34.8333 10.485 34.5577 10L17.5016 20L34.5577 30Z" fill="#C1C4CF"/>
<path fill-rule="evenodd" clip-rule="evenodd" d="M19.0178 39.6322L33.487 31.1491C33.9038 30.905 34.282 30.4818 34.5577 30L17.5016 20L0.445557 30C0.721223 30.4818 1.09946 30.905 1.51617 31.1491L15.9854 39.6322C16.8189 40.1205 18.1812 40.1205 19.0178 39.6322Z" fill="#DCDFE7"/>
<path fill-rule="evenodd" clip-rule="evenodd" d="M34.5577 10C34.282 9.51825 33.9037 9.09507 33.487 8.85093L19.0178 0.367859C18.1844 -0.120422 16.8188 -0.120422 15.9854 0.367859L1.51616 8.85093C0.682755 9.33921 0 10.5404 0 11.5169V28.4831C0 28.9714 0.169887 29.515 0.445554 30L17.5016 20L34.5577 10Z" fill="#A0A6B9"/>
<path fill-rule="evenodd" clip-rule="evenodd" d="M17.5016 31.849C11.0683 31.849 5.83389 26.5332 5.83389 20C5.83389 13.4668 11.0683 8.15106 17.5016 8.15106C21.6526 8.15106 25.5248 10.4199 27.6051 14.0723L22.5566 17.041C21.5148 15.2116 19.5787 14.0788 17.5016 14.0788C14.2834 14.0788 11.6678 16.735 11.6678 20.0033C11.6678 23.2682 14.2834 25.9278 17.5016 25.9278C19.5787 25.9278 21.5148 24.7917 22.5566 22.9655L27.6051 25.9343C25.5248 29.5801 21.6526 31.849 17.5016 31.849Z" fill="white"/>
</g>
<defs>
<clipPath id="clip0">
<rect width="35" height="40" fill="white"/>
</clipPath>
</defs>
</svg>
