<svg width="30" height="40" viewBox="0 0 30 40" fill="none" xmlns="http://www.w3.org/2000/svg">
<path d="M9.67429 30.9217C9.67429 30.9217 8.1276 31.809 10.775 32.1093C13.9823 32.4702 15.6215 32.4185 19.1559 31.7585C19.1559 31.7585 20.0852 32.3333 21.3829 32.8312C13.4596 36.1812 3.45098 32.6372 9.67429 30.9217Z" fill="#5382A1"/>
<path d="M8.70614 26.5501C8.70614 26.5501 6.97138 27.8169 9.62076 28.0872C13.0469 28.4359 15.7525 28.4645 20.4344 27.5751C20.4344 27.5751 21.082 28.2227 22.1002 28.5769C12.5205 31.3404 1.85043 28.7948 8.70614 26.5501Z" fill="#5382A1"/>
<path d="M16.8682 19.1346C18.8205 21.352 16.3553 23.3473 16.3553 23.3473C16.3553 23.3473 21.3125 20.8228 19.0359 17.6615C16.9096 14.7133 15.279 13.2485 24.1063 8.19806C24.1063 8.19806 10.2503 11.612 16.8682 19.1346Z" fill="#E76F00"/>
<path d="M27.3466 34.1551C27.3466 34.1551 28.4911 35.0855 26.086 35.8052C21.5126 37.172 7.05095 37.5847 3.03357 35.8597C1.58942 35.2399 4.29761 34.3798 5.1495 34.1993C6.03793 34.0093 6.54564 34.0447 6.54564 34.0447C4.93961 32.9286 -3.83512 36.2362 2.08852 37.1835C18.2431 39.768 31.5368 36.0197 27.3466 34.1551Z" fill="#5382A1"/>
<path d="M10.4181 22.0208C10.4181 22.0208 3.06202 23.7444 7.81314 24.3703C9.81922 24.6353 13.8183 24.5753 17.5433 24.2674C20.5876 24.0141 23.6444 23.4755 23.6444 23.4755C23.6444 23.4755 22.571 23.929 21.7943 24.4521C14.3243 26.3902 -0.10631 25.4886 4.04809 23.5061C7.56147 21.8307 10.4181 22.0208 10.4181 22.0208Z" fill="#5382A1"/>
<path d="M23.614 29.2973C31.2076 25.4046 27.6967 21.6638 25.246 22.1678C24.6454 22.2911 24.3776 22.398 24.3776 22.398C24.3776 22.398 24.6005 22.0534 25.0264 21.9042C29.8746 20.2228 33.6031 26.8634 23.4614 29.4935C23.4614 29.4936 23.5789 29.39 23.614 29.2973Z" fill="#5382A1"/>
<path d="M19.0359 0.0429077C19.0359 0.0429077 23.2413 4.19304 15.0472 10.5748C8.47631 15.694 13.5488 18.6129 15.0445 21.9478C11.2089 18.5339 8.39416 15.5286 10.2825 12.7316C13.0542 8.62579 20.7327 6.63515 19.0359 0.0429077Z" fill="#E76F00"/>
<path d="M11.1643 39.8457C18.4532 40.306 29.6461 39.5903 29.9112 36.1879C29.9112 36.1879 29.4016 37.4777 23.8873 38.5021C17.6661 39.657 9.99305 39.5222 5.44211 38.782C5.44222 38.7819 6.37374 39.5426 11.1643 39.8457Z" fill="#5382A1"/>
</svg>
