<svg width="40" height="40" viewBox="0 0 40 40" fill="none" xmlns="http://www.w3.org/2000/svg">
<path d="M0 6C0 2.68629 2.68629 0 6 0H34C37.3137 0 40 2.68629 40 6V34C40 37.3137 37.3137 40 34 40H6C2.68629 40 0 37.3137 0 34V6Z" fill="#F7DF1E"/>
<path d="M10.5175 33.4269L13.5786 31.5744C14.1691 32.6214 14.7063 33.5073 15.9949 33.5073C17.2301 33.5073 18.0088 33.0242 18.0088 31.1448V18.3638H21.7678V31.1979C21.7678 35.0913 19.4856 36.8634 16.1561 36.8634C13.149 36.8634 11.4035 35.306 10.5174 33.4266" fill="black"/>
<path d="M23.8096 33.0241L26.8703 31.252C27.676 32.5678 28.7232 33.5343 30.5758 33.5343C32.1333 33.5343 33.1265 32.7556 33.1265 31.6816C33.1265 30.3927 32.1062 29.9362 30.3878 29.1847L29.4483 28.7816C26.7362 27.6273 24.9372 26.1774 24.9372 23.1164C24.9372 20.2971 27.0852 18.1489 30.4416 18.1489C32.8313 18.1489 34.5497 18.9814 35.7847 21.1563L32.858 23.0357C32.2135 21.8812 31.5156 21.4249 30.4417 21.4249C29.3408 21.4249 28.6426 22.123 28.6426 23.0357C28.6426 24.1635 29.3408 24.62 30.9516 25.3182L31.8913 25.7209C35.0866 27.0904 36.8856 28.4864 36.8856 31.6278C36.8856 35.0112 34.2274 36.8637 30.6564 36.8637C27.1659 36.8637 24.9104 35.1991 23.8097 33.0241" fill="black"/>
</svg>
