<svg width="40" height="40" viewBox="0 0 40 40" fill="none" xmlns="http://www.w3.org/2000/svg">
<path d="M19.8307 0.0113525C9.70066 0.0113533 10.3332 4.42158 10.3332 4.42158L10.3445 8.99053H20.0114V10.3623H6.5049C6.5049 10.3623 0.0226898 9.62432 0.0226898 19.8857C0.0226891 30.1471 5.68051 29.7832 5.68051 29.7832H9.05713V25.0215C9.05713 25.0215 8.87512 19.3415 14.6246 19.3415H24.2124C24.2124 19.3415 29.5992 19.4289 29.5992 14.115V5.32857C29.5992 5.32856 30.4171 0.0113525 19.8307 0.0113525ZM14.5004 3.08377C15.4622 3.08377 16.2395 3.86417 16.2395 4.82972C16.2395 5.79528 15.4622 6.57567 14.5004 6.57567C13.5386 6.57567 12.7613 5.79528 12.7613 4.82972C12.7613 3.86417 13.5386 3.08377 14.5004 3.08377Z" fill="url(#paint0_linear)"/>
<path d="M20.1183 39.863C30.2483 39.863 29.6157 35.4528 29.6157 35.4528L29.6044 30.8838H19.9376V29.512H33.4441C33.4441 29.512 39.9263 30.25 39.9263 19.9886C39.9263 9.72724 34.2685 10.0911 34.2685 10.0911H30.8918V14.8528C30.8918 14.8528 31.0739 20.5328 25.3244 20.5328H15.7366C15.7366 20.5328 10.3498 20.4454 10.3498 25.7593V34.5458C10.3498 34.5458 9.53191 39.863 20.1183 39.863ZM25.4486 36.7906C24.4868 36.7906 23.7095 36.0102 23.7095 35.0446C23.7095 34.0791 24.4868 33.2987 25.4486 33.2987C26.4104 33.2987 27.1877 34.0791 27.1877 35.0446C27.1877 36.0102 26.4104 36.7906 25.4486 36.7906Z" fill="url(#paint1_linear)"/>
<defs>
<linearGradient id="paint0_linear" x1="3.85751" y1="3.5959" x2="23.709" y2="23.1725" gradientUnits="userSpaceOnUse">
<stop stop-color="#387EB8"/>
<stop offset="1" stop-color="#366994"/>
</linearGradient>
<linearGradient id="paint1_linear" x1="15.9952" y1="16.2167" x2="37.3097" y2="36.2872" gradientUnits="userSpaceOnUse">
<stop stop-color="#FFE052"/>
<stop offset="1" stop-color="#FFC331"/>
</linearGradient>
</defs>
</svg>
