<svg width="52" height="40" viewBox="0 0 52 40" fill="none" xmlns="http://www.w3.org/2000/svg">
<path fill-rule="evenodd" clip-rule="evenodd" d="M25.9602 34.6479C11.6585 34.6479 0.0645905 26.9396 0.0645905 17.431C0.0645905 7.92223 11.6585 0.213928 25.9602 0.213928C40.262 0.213928 51.8559 7.92223 51.8559 17.431C51.8559 26.9396 40.262 34.6479 25.9602 34.6479ZM29.924 6.94519C19.0534 6.94519 10.2411 12.2149 10.2411 18.7155C10.2411 25.216 19.0534 30.4857 29.924 30.4857C40.7945 30.4857 48.8168 26.8829 48.8168 18.7155C48.8168 10.5505 40.7945 6.94519 29.924 6.94519Z" fill="#DCDFE7"/>
<path fill-rule="evenodd" clip-rule="evenodd" d="M39.5028 26.8806C39.5028 26.8806 41.0701 27.3501 41.9807 27.8075C42.2966 27.9662 42.8433 28.2829 43.2376 28.6987C43.6238 29.106 43.8122 29.5187 43.8122 29.5187L49.989 39.8574L40.0055 39.8618L35.337 31.1586C35.337 31.1586 34.3811 29.528 33.7928 29.0553C33.3021 28.6609 33.0929 28.5205 32.6077 28.5205C32.27 28.5205 30.2357 28.5205 30.2357 28.5205L30.2376 39.8555L21.4033 39.8592V10.9047H39.1437C39.1437 10.9047 47.2238 11.0493 47.2238 18.6809C47.2238 26.3125 39.5028 26.8806 39.5028 26.8806ZM35.6602 17.1853L30.3121 17.1819L30.3094 22.1052L35.6602 22.1035C35.6602 22.1035 38.1381 22.0959 38.1381 19.5991C38.1381 17.052 35.6602 17.1853 35.6602 17.1853Z" fill="#A0A6B9"/>
</svg>
