<svg width="40" height="40" viewBox="0 0 40 40" fill="none" xmlns="http://www.w3.org/2000/svg">
<path fill-rule="evenodd" clip-rule="evenodd" d="M30.9898 26.4014L8.15222 40L37.7225 37.9878L40 8.08783L30.9898 26.4014Z" fill="#A0A6B9"/>
<path fill-rule="evenodd" clip-rule="evenodd" d="M37.771 37.9674L35.2294 20.3766L28.3065 29.5435L37.771 37.9674Z" fill="#C1C4CF"/>
<path fill-rule="evenodd" clip-rule="evenodd" d="M37.8053 37.9674L19.1854 36.5017L8.25116 39.9617L37.8053 37.9674Z" fill="#A0A6B9"/>
<path fill-rule="evenodd" clip-rule="evenodd" d="M8.27739 39.9656L12.9289 24.6847L2.69318 26.8794L8.27739 39.9656Z" fill="#E6E8ED"/>
<path fill-rule="evenodd" clip-rule="evenodd" d="M28.3046 29.5941L24.0246 12.7827L11.7761 24.296L28.3046 29.5941Z" fill="#E6E8ED"/>
<path fill-rule="evenodd" clip-rule="evenodd" d="M39.0289 13.0195L27.4506 3.5368L24.2265 13.9893L39.0289 13.0195Z" fill="#E6E8ED"/>
<path fill-rule="evenodd" clip-rule="evenodd" d="M33.6143 0.155898L26.8046 3.92956L22.5085 0.105286L33.6143 0.155898Z" fill="#E6E8ED"/>
<path fill-rule="evenodd" clip-rule="evenodd" d="M0 32.0053L2.85267 26.7881L0.545097 20.5729L0 32.0053Z" fill="#E6E8ED"/>
<path fill-rule="evenodd" clip-rule="evenodd" d="M0.391663 20.3766L2.71337 26.9805L12.8017 24.7108L24.3194 13.9769L27.5698 3.62385L22.4517 0L13.7504 3.26551C11.0089 5.82245 5.68919 10.8817 5.4974 10.9768C5.30763 11.074 1.98456 17.3722 0.391663 20.3766Z" fill="white"/>
<path fill-rule="evenodd" clip-rule="evenodd" d="M8.54388 8.51304C14.4854 2.60556 22.145 -0.88467 25.0845 2.08932C28.0222 5.0633 24.9069 12.2908 18.9653 18.1962C13.0238 24.1017 5.45904 27.7842 2.52157 24.8102C-0.417913 21.8383 2.60233 14.4185 8.54388 8.51304Z" fill="#C1C4CF"/>
<path fill-rule="evenodd" clip-rule="evenodd" d="M8.2774 39.9595L12.8926 24.63L28.2199 29.5678C22.678 34.7788 16.5144 39.1841 8.2774 39.9595Z" fill="#C1C4CF"/>
<path fill-rule="evenodd" clip-rule="evenodd" d="M24.3396 13.9468L28.2744 29.5759C32.9036 24.6948 37.0585 19.4473 39.0933 12.9568L24.3396 13.9468Z" fill="#C1C4CF"/>
<path fill-rule="evenodd" clip-rule="evenodd" d="M39.0532 13.0358C40.6279 8.27009 40.9913 1.43336 33.5657 0.164001L27.4727 3.53884L39.0532 13.0358Z" fill="#DCDFE7"/>
<path fill-rule="evenodd" clip-rule="evenodd" d="M0 31.9364C0.218039 39.8018 5.87695 39.919 8.28749 39.988L2.71943 26.9481L0 31.9364Z" fill="#C1C4CF"/>
<path fill-rule="evenodd" clip-rule="evenodd" d="M24.3616 13.9711C27.9188 16.1636 35.0881 20.5669 35.2334 20.6478C35.4593 20.7754 38.3243 15.8032 38.9744 12.9932L24.3616 13.9711Z" fill="#C1C4CF"/>
<path fill-rule="evenodd" clip-rule="evenodd" d="M12.8865 24.63L19.0562 36.5664C22.7043 34.5824 25.561 32.1652 28.1774 29.5758L12.8865 24.63Z" fill="#C1C4CF"/>
<path fill-rule="evenodd" clip-rule="evenodd" d="M2.69522 26.9643L1.82104 37.4026C3.47047 39.6619 5.73968 39.8583 8.11994 39.6822C6.39784 35.3842 2.95767 26.7902 2.69522 26.9643Z" fill="#C1C4CF"/>
<path fill-rule="evenodd" clip-rule="evenodd" d="M27.4365 3.56513L39.6931 5.29C39.039 2.51037 37.0302 0.716669 33.6062 0.155884L27.4365 3.56513Z" fill="#C1C4CF"/>
</svg>
