<svg width="40" height="40" viewBox="0 0 40 40" fill="none" xmlns="http://www.w3.org/2000/svg">
<path d="M39.4781 19.5155L37.82 18.4891C37.806 18.3276 37.7902 18.1664 37.7728 18.006L39.1977 16.677C39.3426 16.5419 39.4075 16.3419 39.3683 16.1483C39.3302 15.954 39.194 15.794 39.0087 15.7249L37.1872 15.0438C37.1415 14.886 37.0936 14.7294 37.0445 14.5736L38.1808 12.9955C38.2966 12.8351 38.3204 12.6264 38.2449 12.4434C38.1694 12.2611 38.0045 12.1306 37.8094 12.0985L35.8887 11.786C35.814 11.6404 35.7362 11.497 35.6577 11.3547L36.4649 9.58303C36.5475 9.40265 36.5306 9.19284 36.4204 9.02907C36.3106 8.86454 36.1245 8.76831 35.926 8.77586L33.9766 8.84378C33.8759 8.71775 33.7732 8.59284 33.6687 8.4702L34.1166 6.57133C34.1619 6.3785 34.1049 6.17661 33.9645 6.03661C33.8253 5.89699 33.623 5.83926 33.4302 5.88454L31.5317 6.33209C31.4087 6.22794 31.2838 6.12492 31.1574 6.02416L31.2257 4.07473C31.2332 3.87737 31.137 3.68982 30.9725 3.58039C30.8075 3.4702 30.5989 3.4536 30.4189 3.53548L28.6475 4.34303C28.5045 4.26454 28.3611 4.1868 28.2162 4.11171L27.903 2.19058C27.8713 1.99586 27.7408 1.83058 27.5581 1.7551C27.3758 1.67926 27.1668 1.70378 27.0064 1.81926L25.4272 2.95548C25.2717 2.90605 25.1155 2.8585 24.9577 2.81322L24.2766 0.991331C24.2075 0.805671 24.0475 0.669445 23.8532 0.630954C23.6592 0.592841 23.4596 0.657369 23.3249 0.80152L21.9958 2.22756C21.8355 2.20982 21.674 2.1936 21.5128 2.18039L20.4864 0.521898C20.3826 0.353973 20.1989 0.251709 20.0011 0.251709C19.8034 0.251709 19.6196 0.353973 19.5162 0.521898L18.4898 2.18039C18.3283 2.1936 18.1668 2.20982 18.0064 2.22756L16.677 0.80152C16.5423 0.657369 16.3423 0.592841 16.1487 0.630954C15.9543 0.669822 15.7943 0.805671 15.7253 0.991331L15.0442 2.81322C14.8864 2.8585 14.7302 2.90643 14.5743 2.95548L12.9955 1.81926C12.8351 1.70341 12.626 1.67888 12.4434 1.7551C12.2611 1.83058 12.1302 1.99586 12.0985 2.19058L11.7853 4.11171C11.6404 4.1868 11.497 4.26416 11.354 4.34303L9.58264 3.53548C9.40264 3.45322 9.19283 3.4702 9.02906 3.58039C8.86453 3.68982 8.7683 3.87737 8.77585 4.07473L8.84377 6.02416C8.71774 6.12492 8.59283 6.22794 8.46943 6.33209L6.57094 5.88454C6.37811 5.83963 6.17585 5.89699 6.03623 6.03661C5.89585 6.17661 5.83887 6.3785 5.88415 6.57133L6.33132 8.4702C6.22755 8.59322 6.12491 8.71775 6.02415 8.84378L4.07472 8.77586C3.87811 8.7702 3.69019 8.86454 3.58038 9.02907C3.47019 9.19284 3.45358 9.40265 3.53547 9.58303L4.34302 11.3547C4.26453 11.497 4.18679 11.6404 4.1117 11.786L2.19094 12.0985C1.99585 12.1302 1.83132 12.2608 1.75547 12.4434C1.68 12.6264 1.70453 12.8351 1.81962 12.9955L2.95585 14.5736C2.90641 14.7294 2.85849 14.886 2.81321 15.0438L0.99132 15.7249C0.806415 15.794 0.670189 15.954 0.631698 16.1483C0.593207 16.3423 0.657736 16.5419 0.802264 16.677L2.22755 18.006C2.20981 18.1664 2.19396 18.3279 2.18038 18.4891L0.522264 19.5155C0.354339 19.6193 0.252075 19.8027 0.252075 20.0008C0.252075 20.1989 0.354339 20.3823 0.522264 20.4857L2.18038 21.5121C2.19396 21.6736 2.20981 21.8347 2.22755 21.9951L0.802264 23.3245C0.657736 23.4593 0.593207 23.6593 0.631698 23.8528C0.670189 24.0472 0.806415 24.2068 0.99132 24.2762L2.81321 24.9574C2.85849 25.1151 2.90641 25.2717 2.95585 25.4276L1.81962 27.006C1.70415 27.1668 1.67962 27.3755 1.75547 27.5577C1.83132 27.7408 1.99623 27.8713 2.19132 27.9027L4.1117 28.2151C4.18679 28.3608 4.26377 28.5042 4.34302 28.6472L3.53547 30.4181C3.45321 30.5981 3.47019 30.8076 3.58038 30.9721C3.69057 31.137 3.87811 31.2332 4.07472 31.2253L6.0234 31.157C6.1249 31.2838 6.22717 31.4079 6.33132 31.5313L5.88415 33.4306C5.83887 33.623 5.89585 33.8242 6.03623 33.9642C6.17547 34.1049 6.37811 34.1611 6.57094 34.1159L8.46943 33.6687C8.59283 33.7736 8.71774 33.8755 8.84377 33.9759L8.77585 35.9257C8.7683 36.123 8.86453 36.3102 9.02906 36.4204C9.19283 36.5302 9.40264 36.5468 9.58264 36.4645L11.354 35.6574C11.4966 35.7366 11.64 35.8136 11.7853 35.8887L12.0985 37.8087C12.1302 38.0042 12.2608 38.1694 12.4434 38.2445C12.6257 38.3204 12.8351 38.2959 12.9955 38.1808L14.5736 37.0438C14.7294 37.0932 14.886 37.1415 15.0438 37.1868L15.7249 39.0079C15.794 39.1928 15.954 39.3298 16.1483 39.3676C16.3423 39.4068 16.5419 39.3419 16.6766 39.197L18.006 37.7717C18.1664 37.7902 18.3279 37.8057 18.4894 37.82L19.5158 39.4781C19.6192 39.6453 19.803 39.7483 20.0008 39.7483C20.1985 39.7483 20.3823 39.6457 20.486 39.4781L21.5125 37.82C21.674 37.8057 21.8351 37.7902 21.9955 37.7717L23.3245 39.197C23.4592 39.3419 23.6592 39.4068 23.8528 39.3676C24.0472 39.3294 24.2072 39.1928 24.2762 39.0079L24.9574 37.1868C25.1151 37.1415 25.2717 37.0932 25.4275 37.0438L27.006 38.1808C27.1664 38.2959 27.3755 38.3204 27.5577 38.2445C27.7404 38.1694 27.8709 38.0038 27.9026 37.8087L28.2158 35.8887C28.3608 35.8136 28.5042 35.7355 28.6472 35.6574L30.4185 36.4645C30.5985 36.5468 30.8079 36.5302 30.9721 36.4204C31.1366 36.3102 31.2325 36.1234 31.2253 35.9257L31.1574 33.9759C31.2834 33.8751 31.4083 33.7736 31.5313 33.6687L33.4298 34.1159C33.6226 34.1611 33.8249 34.1049 33.9642 33.9642C34.1045 33.8242 34.1615 33.623 34.1162 33.4306L33.6691 31.5313C33.7732 31.4079 33.8759 31.2838 33.9762 31.157L35.9257 31.2253C36.1223 31.2332 36.3102 31.137 36.42 30.9721C36.5302 30.8076 36.5472 30.5981 36.4645 30.4181L35.6574 28.6472C35.7362 28.5042 35.8136 28.3608 35.8883 28.2151L37.8091 27.9027C38.0045 27.8713 38.1691 27.7408 38.2445 27.5577C38.32 27.3755 38.2962 27.1668 38.1804 27.006L37.0442 25.4276C37.0932 25.2717 37.1411 25.1151 37.1868 24.9574L39.0083 24.2762C39.1936 24.2068 39.3302 24.0472 39.3679 23.8528C39.4072 23.6589 39.3423 23.4593 39.1974 23.3245L37.7725 21.9951C37.7898 21.8347 37.8057 21.6732 37.8196 21.5121L39.4777 20.4857C39.6457 20.3823 39.7479 20.1985 39.7479 20.0008C39.7479 19.803 39.646 19.6193 39.4781 19.5155V19.5155ZM28.3804 33.2706C27.7472 33.134 27.3445 32.5098 27.4804 31.8747C27.6158 31.2404 28.2396 30.8366 28.8725 30.9732C29.5057 31.1087 29.9091 31.734 29.7732 32.3679C29.6374 33.0019 29.0132 33.406 28.3804 33.2706ZM27.817 29.46C27.2392 29.3362 26.6709 29.7038 26.5472 30.2827L25.9585 33.0298C24.1419 33.8544 22.1245 34.3125 20 34.3125C17.8268 34.3125 15.7657 33.8317 13.9166 32.9721L13.3283 30.2249C13.2045 29.6468 12.6362 29.2785 12.0589 29.4027L9.63358 29.9234C9.1834 29.46 8.76453 28.9664 8.37962 28.4453H20.1804C20.314 28.4453 20.403 28.4211 20.403 28.2996V24.1253C20.403 24.0038 20.314 23.9796 20.1804 23.9796H16.7291V21.3336H20.4619C20.8026 21.3336 22.2838 21.431 22.7574 23.3242C22.9057 23.9064 23.2313 25.8004 23.454 26.4068C23.6758 27.0868 24.5792 28.4453 25.5419 28.4453H31.4223C31.4891 28.4453 31.5604 28.4377 31.6355 28.4242C31.2275 28.9785 30.78 29.503 30.2981 29.9932L27.817 29.46V29.46ZM11.4955 33.2132C10.8623 33.3498 10.2389 32.946 10.1026 32.3117C9.96717 31.6762 10.3698 31.0525 11.003 30.9159C11.6362 30.7804 12.26 31.1842 12.3958 31.8185C12.5313 32.4525 12.1283 33.0774 11.4955 33.2132ZM7.01887 15.0604C7.28151 15.6532 7.01434 16.3479 6.42226 16.6102C5.83019 16.8732 5.13736 16.6057 4.87472 16.0125C4.61208 15.4193 4.87925 14.7257 5.47132 14.4627C6.06377 14.2 6.75623 14.4672 7.01887 15.0604ZM5.64302 18.3219L8.16943 17.1993C8.70906 16.9596 8.95283 16.3272 8.71321 15.7864L8.19283 14.6098H10.2392V23.834H6.11057C5.75245 22.5751 5.56038 21.2464 5.56038 19.8732C5.56038 19.3491 5.58868 18.831 5.64302 18.3219V18.3219ZM16.7298 17.426V14.7072H21.603C21.8547 14.7072 23.3804 14.9981 23.3804 16.1389C23.3804 17.086 22.2102 17.4257 21.2479 17.4257H16.7298V17.426ZM34.44 19.8732C34.44 20.234 34.4268 20.591 34.4004 20.9453H32.9189C32.7706 20.9453 32.7109 21.0427 32.7109 21.1879V21.8683C32.7109 23.4698 31.8079 23.8181 31.0166 23.9068C30.263 23.9917 29.4275 23.5913 29.3245 23.1302C28.88 20.6298 28.1392 20.0959 26.9694 19.1732C28.4211 18.2513 29.9317 16.8913 29.9317 15.071C29.9317 13.1053 28.5841 11.8672 27.6657 11.26C26.377 10.4106 24.9502 10.2404 24.5653 10.2404H9.2434C11.3211 7.92152 14.137 6.27888 17.3219 5.68114L19.1279 7.57586C19.5362 8.00341 20.2125 8.01926 20.6396 7.61058L22.6604 5.67775C26.8947 6.46605 30.4796 9.1019 32.5457 12.7181L31.1623 15.8427C30.9234 16.3834 31.1672 17.0159 31.7064 17.2555L34.3698 18.4385C34.4159 18.9113 34.44 19.3891 34.44 19.8732V19.8732ZM19.1287 4.06944C19.5966 3.62114 20.3389 3.63888 20.7868 4.10756C21.234 4.57737 21.217 5.32039 20.7479 5.76831C20.28 6.21661 19.5377 6.19926 19.0898 5.72982C18.643 5.26077 18.66 4.51775 19.1287 4.06944V4.06944ZM32.857 15.1174C33.1192 14.5245 33.8121 14.257 34.4042 14.52C34.9962 14.7827 35.2634 15.477 35.0008 16.0698C34.7385 16.663 34.0457 16.9306 33.4532 16.6676C32.8619 16.4049 32.5947 15.711 32.857 15.1174V15.1174Z" fill="#A0A6B9"/>
</svg>
