<svg class="icon" viewBox="7 7 18 18" xmlns="http://www.w3.org/2000/svg"><g class="primary"><path d="m22.167 10h-12.334c-1.011 0-1.833.822-1.833 1.833v8.333c0 1.012.822 1.834 1.833 1.834h12.333c1.012 0 1.834-.822 1.834-1.833v-8.333c0-1.012-.822-1.834-1.833-1.834zm-2.167 7.167c0 .827-.673 1.5-1.5 1.5-.649 0-1.198-.417-1.407-.996-.314.207-.689.329-1.093.329-1.103 0-2-.897-2-2s.897-2 2-2 2 .897 2 2v1.167c0 .275.224.5.5.5s.5-.225.5-.5v-1.167c0-1.654-1.346-3-3-3s-3 1.346-3 3 1.346 3 3 3c.276 0 .5.224.5.5s-.224.5-.5.5c-2.206 0-4-1.794-4-4s1.794-4 4-4 4 1.794 4 4z"/><circle cx="16" cy="16" r="1"/></g></svg>