<svg class="icon" viewBox="7 7 18 18" xmlns="http://www.w3.org/2000/svg"><path d="m16 8c-4.411 0-8 3.589-8 8s3.589 8 8 8 8-3.589 8-8-3.589-8-8-8zm-6.532 9.333h7.199c.735 0 1.333-.598 1.333-1.333s-.598-1.333-1.333-1.333h-3.333c-.368 0-.667-.299-.667-.667s.299-.667.667-.667h.666c.735 0 1.333-.598 1.333-1.333s-.598-1.333-1.333-1.333h-1.983c1.113-.834 2.489-1.334 3.983-1.334 1.86 0 3.542.767 4.753 2h-.753c-.735 0-1.333.598-1.333 1.333s.598 1.334 1.333 1.334h2.359c.199.632.307 1.303.307 2 0 .948-.202 1.849-.56 2.667h-4.773c-.735 0-1.333.598-1.333 1.333s.598 1.333 1.333 1.333h2.65c-1.113.833-2.489 1.333-3.983 1.333-3.219.001-5.913-2.293-6.532-5.333z" class="primary"/></svg>