<svg class="icon" viewBox="7 7 18 18" xmlns="http://www.w3.org/2000/svg"><g></g><path d="m20.059 24-8.84-.001c-.529-.013-.977-.175-1.324-.519-.362-.359-.562-.865-.562-1.423v-6.594l-.954-.456c-.232-.111-.379-.345-.379-.601v-3.188c0-.253.143-.483.368-.596l.907-.453v-.227c0-1.071.871-1.942 1.942-1.942h8.841c1.071 0 1.942.871 1.942 1.942v6.527l1.536.49c.276.088.464.344.464.634v3.188c0 .3-.201.563-.49.643l-1.51.416v.13c0 1.099-.889 2.028-1.941 2.03zm-8.846-1.334 8.845.001c.307 0 .609-.345.609-.697v-.638c0-.3.201-.563.49-.643l1.51-.416v-2.193l-1.536-.49c-.276-.088-.464-.345-.464-.635v-7.013c0-.336-.273-.609-.609-.609h-8.841c-.336 0-.609.273-.609.609v.638c0 .253-.143.483-.368.596l-.907.453v2.356l.954.456c.231.111.379.345.379.602v7.014c0 .197.061.371.167.476.091.089.203.127.38.133z" class="primary"/><g class="secondary"><path d="m11.333 14.666c-.368 0-.667-.298-.667-.667v-2.667c0-.368.299-.667.667-.667s.667.3.667.668v2.667c0 .368-.299.666-.667.666z"/><path d="m16 14.666h-1.333c-.735 0-1.333-.598-1.333-1.333v-1.333c0-.735.598-1.333 1.333-1.333h1.333c.735 0 1.333.598 1.333 1.333v1.333c0 .735-.598 1.333-1.333 1.333z"/><circle cx="19.333" cy="10.667" r=".667"/><circle cx="19.333" cy="14.666" r=".667"/><path d="m18.722 21.999h-6.111c-.704 0-1.278-.598-1.278-1.333v-.667c0-.735.573-1.333 1.278-1.333h6.111c.704 0 1.278.598 1.278 1.333v.667c0 .735-.573 1.333-1.278 1.333z"/><path d="m15.667 19.999c-.368 0-.667-.298-.667-.667v-1.333c0-.368.299-.667.667-.667s.667.298.667.667v1.333c-.001.369-.299.667-.667.667z"/><path d="m13.333 19.999c-.368 0-.667-.298-.667-.667v-1.333c0-.368.299-.667.667-.667s.667.299.667.667v1.333c0 .369-.299.667-.667.667z"/><path d="m18 19.999c-.368 0-.667-.298-.667-.667v-1.333c0-.368.299-.667.667-.667s.667.298.667.667v1.333c0 .369-.299.667-.667.667z"/></g></svg>