<svg class="icon" viewBox="7 7 18 18" xmlns="http://www.w3.org/2000/svg"><g transform="scale(0.0625)"><path d="m380.257812 283.34375-41.28125-109.742188c0-.015624-.015624-.050781-.015624-.066406l-.015626-.015625c-5.441406-14.464843-19.488281-24.191406-34.945312-24.191406s-29.503906 9.710937-34.960938 24.207031c-1.566406 4.207032-2.367187 8.625-2.367187 13.136719v48h-21.328125v-48c0-20.574219-16.75-37.328125-37.328125-37.328125-15.457031 0-29.503906 9.710938-34.960937 24.207031 0 .015625-.015626.050781-.015626.066407l-41.261718 109.726562v.015625c-2.511719 6.59375-3.777344 13.535156-3.777344 20.640625 0 32.351562 26.320312 58.671875 58.671875 58.671875s58.671875-26.320313 58.671875-58.671875v-5.328125h21.328125v5.328125c0 32.351562 26.320313 58.671875 58.671875 58.671875s58.65625-26.320313 58.65625-58.671875c0-7.105469-1.265625-14.046875-3.742188-20.65625zm-193.585937 57.984375c-20.574219 0-37.328125-16.753906-37.328125-37.328125 0-4.527344.800781-8.945312 2.367188-13.136719 5.441406-14.464843 19.488281-24.191406 34.960937-24.191406 20.574219 0 37.328125 16.753906 37.328125 37.328125s-16.753906 37.328125-37.328125 37.328125zm138.65625 0c-20.574219 0-37.328125-16.753906-37.328125-37.328125s16.753906-37.328125 37.328125-37.328125c15.472656 0 29.503906 9.726563 34.960937 24.191406 1.566407 4.191407 2.367188 8.609375 2.367188 13.136719.015625 20.574219-16.734375 37.328125-37.328125 37.328125zm0 0" class="primary"/></g></svg>