<svg class="icon" viewBox="7 7 18 18" xmlns="http://www.w3.org/2000/svg"><g class="secondary"><path d="m16 15.167c-.735 0-1.333-.598-1.333-1.333s.598-1.333 1.333-1.333 1.333.598 1.333 1.333-.598 1.333-1.333 1.333z"/><path d="m20 17.833c-.735 0-1.333-.598-1.333-1.333s.598-1.333 1.333-1.333 1.333.598 1.333 1.333-.598 1.333-1.333 1.333z"/><path d="m16 22.5c-.368 0-.667-.299-.667-.667v-7c0-.368.298-.667.667-.667.368 0 .667.299.667.667v7c0 .369-.299.667-.667.667z"/><path d="m18.667 20.5c-.369 0-.667-.298-.667-.667v-1.667c0-.13.038-.256.109-.365l.627-.96c.201-.308.615-.394.923-.194.308.201.395.615.193.923l-.518.794v1.468c-.001.37-.299.668-.667.668z"/><path d="m12 17.833c-.735 0-1.333-.598-1.333-1.333s.598-1.333 1.333-1.333 1.333.598 1.333 1.333-.598 1.333-1.333 1.333z"/><path d="m13.333 20.5c-.368 0-.667-.299-.667-.667v-1.468l-.518-.794c-.202-.308-.115-.721.193-.923.309-.2.721-.115.923.194l.627.96c.071.108.109.235.109.365v1.667c0 .368-.298.666-.667.666z"/></g><path d="m20.449 11.118c-.875-1.599-2.59-2.618-4.449-2.618-2.363 0-4.413 1.644-4.931 3.886-1.723.181-3.069 1.628-3.069 3.381 0 1.84 1.487 3.335 3.333 3.39v-.084c-1.147-.298-2-1.333-2-2.572 0-1.47 1.196-2.667 2.667-2.667.504 0 .971.149 1.373.392-.019-.129-.04-.258-.04-.392 0-1.47 1.196-2.667 2.667-2.667s2.667 1.196 2.667 2.667c0 .134-.02.263-.04.392.402-.244.869-.392 1.373-.392 1.471 0 2.667 1.196 2.667 2.667 0 1.239-.853 2.274-2 2.572v.023c1.894-.352 3.333-1.999 3.333-3.974 0-2.044-1.538-3.75-3.551-4.004z" class="primary"/></svg>