<svg class="icon" viewBox="7 7 18 18" xmlns="http://www.w3.org/2000/svg"><g class="secondary"><path d="m22.667 10.667c-.735 0-1.333-.598-1.333-1.333-.001-.736.598-1.334 1.333-1.334s1.333.598 1.333 1.333c0 .736-.598 1.334-1.333 1.334z"/><path d="m22.667 24c-.735 0-1.333-.598-1.333-1.333s.598-1.333 1.333-1.333 1.333.598 1.333 1.333-.598 1.333-1.333 1.333z"/><path d="m9.333 10.667c-.735 0-1.333-.598-1.333-1.334 0-.735.598-1.333 1.333-1.333s1.333.598 1.333 1.333c.001.736-.598 1.334-1.333 1.334z"/><path d="m9.333 24c-.735 0-1.333-.598-1.333-1.333s.598-1.333 1.333-1.333 1.333.598 1.333 1.333-.598 1.333-1.333 1.333z"/><path d="m21.96 22.627c-.171 0-.341-.065-.471-.195l-1.48-1.48c-.26-.26-.26-.682 0-.943.26-.26.682-.26.943 0l1.48 1.48c.26.26.26.682 0 .943-.131.13-.301.195-.472.195z"/><path d="m11.52 12.187c-.171 0-.341-.065-.471-.195l-1.48-1.48c-.26-.26-.26-.682 0-.943s.682-.26.943 0l1.48 1.48c.26.26.26.682 0 .943-.131.129-.301.195-.472.195z"/><path d="m10.04 22.627c-.171 0-.341-.065-.471-.195-.26-.26-.26-.683 0-.943l1.48-1.48c.26-.26.682-.26.943 0 .26.26.26.683 0 .943l-1.48 1.48c-.131.13-.302.195-.472.195z"/><path d="m20.48 12.187c-.171 0-.341-.065-.471-.195-.26-.26-.26-.683 0-.943l1.48-1.48c.26-.26.682-.26.943 0s.26.683 0 .943l-1.48 1.48c-.131.129-.302.195-.472.195z"/></g><path d="m16 9.333c-3.676 0-6.667 2.991-6.667 6.667s2.991 6.667 6.667 6.667 6.667-2.991 6.667-6.667-2.991-6.667-6.667-6.667zm2.667 9.026c-.015.907-.757 1.641-1.667 1.641-.329 0-.648-.099-.914-.275-.268.178-.585.275-.919.275-.91 0-1.652-.734-1.667-1.641-.595-.252-1-.838-1-1.526 0-.191.033-.379.096-.555-.307-.255-.507-.621-.568-1.027.114-.524.581-.918 1.139-.918.643 0 1.167.523 1.167 1.167 0 .276.224.5.5.5s.5-.224.5-.5c0-1.126-.867-2.044-1.967-2.146.147-.77.821-1.354 1.633-1.354.411 0 .791.146 1.085.398.293-.253.673-.398 1.082-.398.806 0 1.475.576 1.629 1.337-1.177.021-2.129.981-2.129 2.163 0 .276.224.5.5.5s.5-.224.5-.5c0-.643.523-1.167 1.167-1.167s1.166.524 1.166 1.167c0 .053.015.101.03.148-.103.244-.257.462-.46.63.063.176.096.364.096.555.001.688-.404 1.275-.999 1.526z" class="primary"/></svg>