<svg class="icon" viewBox="7 7 18 18" xmlns="http://www.w3.org/2000/svg"><g class="secondary"><path d="m10.862 20.195-1.188 1.188c-.109-.029-.222-.05-.341-.05-.735 0-1.333.598-1.333 1.334s.598 1.333 1.333 1.333 1.333-.598 1.333-1.333c0-.119-.021-.231-.05-.341l1.188-1.188c.26-.26.26-.682 0-.943s-.682-.26-.942 0z"/><path d="m16 8c-.735 0-1.333.598-1.333 1.333 0 .491.27.917.667 1.148v2.185c0 .368.299.667.667.667s.667-.299.667-.667v-2.185c.397-.231.667-.656.667-1.148-.002-.735-.6-1.333-1.335-1.333z"/><path d="m22.667 21.333c-.119 0-.231.021-.341.05l-1.188-1.188c-.26-.26-.682-.26-.943 0s-.26.682 0 .943l1.188 1.188c-.029.109-.05.222-.05.341 0 .735.598 1.333 1.333 1.333s1.334-.598 1.334-1.333-.598-1.334-1.333-1.334z"/></g><path d="m9.333 14.767v5.543l.822-.821c.65-.65 1.707-.65 2.357 0s.65 1.707 0 2.357l-.542.543 3.364 1.346v-6.567z" class="primary"/><path d="m17.667 11.333v1.333c0 .919-.748 1.667-1.667 1.667s-1.667-.748-1.667-1.667v-1.333l-5 2 6.667 2.667 6.667-2.667z" class="primary"/><path d="m19.488 21.845c-.65-.65-.65-1.707 0-2.357s1.707-.65 2.357 0l.822.821v-5.543l-6 2.4v6.567l3.364-1.346z" class="primary"/></svg>