<svg class="icon" viewBox="7 7 18 18" xmlns="http://www.w3.org/2000/svg"><g class="secondary"><path d="m21.734 20.833c-.036 0-.072-.004-.109-.012-.27-.06-.44-.327-.38-.596l.887-4.007c.059-.269.326-.438.596-.38.27.06.44.327.38.596l-.887 4.007c-.051.234-.258.392-.487.392z"/><path d="m11.666 22.553c-.264 0-.486-.208-.499-.475-.014-.276.199-.51.475-.524l8.667-.427c.275-.014.51.199.524.475s-.199.51-.475.524l-8.667.427c-.008 0-.017 0-.025 0z"/><path d="m9.286 15.567c-.072 0-.144-.015-.213-.048-.25-.118-.357-.416-.238-.666l2.287-4.833c.118-.25.416-.356.665-.238.25.118.357.416.238.666l-2.287 4.833c-.085.18-.265.286-.452.286z"/><path d="m9.426 20.94c-.265 0-.486-.208-.499-.476l-.2-4.153c-.013-.276.199-.51.475-.523.278-.011.51.199.523.475l.2 4.153c.014.276-.199.51-.475.523-.008.001-.016.001-.024.001z"/><path d="m22.128 15c-.164 0-.325-.08-.421-.228l-2.767-4.273c-.15-.232-.083-.541.148-.691.232-.15.541-.084.691.148l2.767 4.273c.15.232.083.541-.148.691-.084.054-.177.08-.27.08z"/><path d="m18.334 10.133c-.008 0-.016 0-.024-.001l-5.34-.254c-.276-.013-.489-.247-.476-.523s.269-.478.523-.476l5.34.254c.276.013.489.247.476.523-.013.269-.234.477-.499.477z"/><path d="m20.727 21.227c-.128 0-.256-.049-.354-.146l-2.507-2.507c-.195-.195-.195-.512 0-.707s.512-.195.707 0l2.507 2.507c.195.195.195.512 0 .707-.098.097-.225.146-.353.146z"/><path d="m14.934 14.567c-.167 0-.331-.084-.426-.237l-2.407-3.887c-.145-.235-.073-.543.162-.688.234-.145.543-.073.688.162l2.407 3.887c.145.235.073.543-.162.688-.081.051-.172.075-.262.075z"/><path d="m11.101 21.253c-.158 0-.314-.075-.411-.214-.158-.227-.102-.538.124-.696l3.473-2.42c.228-.159.539-.102.696.124.158.227.102.538-.124.696l-3.473 2.42c-.087.061-.187.09-.285.09z"/><path d="m17.32 14.36c-.062 0-.125-.011-.186-.036-.257-.103-.381-.394-.278-.65l1.433-3.573c.102-.257.394-.382.65-.278.257.103.381.394.278.65l-1.433 3.573c-.078.196-.266.314-.464.314z"/><path d="m18.966 16.42c-.242 0-.454-.175-.493-.421-.044-.272.142-.529.415-.573l2.713-.433c.273-.042.529.142.572.415.044.272-.142.529-.415.573l-2.713.433c-.026.004-.053.006-.079.006z"/><path d="m13.68 16.593c-.015 0-.031-.001-.046-.002l-4.02-.367c-.274-.024-.477-.268-.452-.543.025-.276.271-.478.544-.452l4.02.367c.275.025.477.269.452.544-.024.258-.242.453-.498.453z"/></g><path d="m16.333 19.333c-1.654 0-3-1.346-3-3s1.346-3 3-3 3 1.346 3 3c0 1.655-1.345 3-3 3z" class="primary"/><path d="m10 24c-1.103 0-2-.897-2-2s.897-2 2-2 2 .897 2 2-.897 2-2 2z" class="primary"/><path d="m12 10.667c-.735 0-1.333-.598-1.333-1.333 0-.736.598-1.334 1.333-1.334s1.333.598 1.333 1.333c0 .736-.598 1.334-1.333 1.334z" class="primary"/><path d="m21.667 23.333c-.919 0-1.667-.748-1.667-1.667 0-.918.747-1.666 1.667-1.666s1.667.748 1.667 1.667c-.001.919-.748 1.666-1.667 1.666z" class="primary"/><circle cx="19" cy="9.667" class="primary" r="1"/><path d="m22.667 16.667c-.735 0-1.333-.598-1.333-1.333s.598-1.334 1.333-1.334 1.333.598 1.333 1.333-.598 1.334-1.333 1.334z" class="primary"/><circle cx="9" cy="15.667" class="primary" r="1"/></svg>