<svg class="icon" viewBox="7 7 18 18" xmlns="http://www.w3.org/2000/svg"><g class="secondary"><circle cx="21" cy="12.5" r=".667"/><path d="m22.003 11.267c-.54-.559-1.466-.559-2.006 0-.192.2-.508.205-.707.013s-.204-.508-.013-.707c.92-.954 2.525-.954 3.445 0 .192.199.186.515-.013.707s-.516.185-.706-.013z"/><path d="m23.14 9.754c-.572-.593-1.332-.92-2.14-.92s-1.568.327-2.14.92c-.192.199-.508.205-.707.013s-.204-.508-.013-.707c.763-.791 1.778-1.226 2.86-1.226s2.097.436 2.86 1.226c.191.199.186.515-.013.707-.199.191-.515.185-.707-.013z"/></g><g class="primary"><path d="m18.667 17.833c-.368 0-.667-.299-.667-.667v-.666c0-1.47-1.196-2.667-2.667-2.667h-4.385c-.284 0-.536.18-.63.448l-1.022 2.938c-.121.348-.5.533-.849.41-.348-.121-.532-.501-.41-.849l1.022-2.938c.28-.803 1.039-1.343 1.889-1.343h4.385c2.206 0 4 1.794 4 4v.667c0 .369-.298.667-.666.667z"/><path d="m11.634 23.167c-.919 0-1.667-.748-1.667-1.667s.748-1.667 1.667-1.667 1.667.748 1.667 1.667c-.001.919-.748 1.667-1.667 1.667z"/><path d="m20.3 23.167c-.919 0-1.667-.748-1.667-1.667s.748-1.667 1.667-1.667 1.667.748 1.667 1.667-.748 1.667-1.667 1.667z"/><path d="m12.667 18c-.369 0-.667-.298-.667-.667v-3.833c0-.368.299-.667.667-.667s.667.299.667.667v3.833c-.001.369-.299.667-.667.667z"/><path d="m22.499 18.5c-.642 0-1.166-.523-1.166-1.167v-.561c-.549-.178-1.165-.272-1.833-.272h-11c-.276 0-.5.224-.5.5v3c0 .701.399 1.304.978 1.612-.002-.038-.011-.074-.011-.112 0-1.47 1.196-2.667 2.667-2.667s2.666 1.197 2.666 2.667c0 .114-.02.223-.034.333h3.401c-.014-.11-.034-.219-.034-.333 0-1.47 1.196-2.667 2.667-2.667s2.667 1.196 2.667 2.667c0 .051-.012.099-.015.15.617-.295 1.048-.588 1.048-1.317 0-.692-.164-1.306-.456-1.831z"/></g></svg>