<svg class="icon" viewBox="7 7 18 18" xmlns="http://www.w3.org/2000/svg"><g ></g><g id="solid"><path d="m22.312 20.754c-.305 0-.588.09-.832.237l-2.646-1.832v-3.159c0-.368-.299-.667-.667-.667s-.667.299-.667.667v3.507c0 .219.107.424.287.548l2.931 2.03c-.017.095-.03.192-.03.292 0 .895.728 1.623 1.623 1.623s1.623-.728 1.623-1.623c.001-.895-.727-1.623-1.622-1.623zm0 1.913c-.16 0-.29-.13-.29-.29s.13-.29.29-.29.29.13.29.29-.131.29-.29.29z" class="secondary"/><path d="m16.667 20.901v-4.901c0-.368-.299-.667-.667-.667s-.667.299-.667.667v4.901c-.562.255-.956.819-.956 1.476 0 .895.728 1.623 1.623 1.623s1.623-.728 1.623-1.623c0-.657-.394-1.221-.956-1.476zm-.667 1.766c-.16 0-.29-.13-.29-.29s.13-.29.29-.29.29.13.29.29-.13.29-.29.29z" class="secondary"/><path d="m11.115 18.763.881-.011.171-.118v-2.634c0-.919.748-1.667 1.667-1.667.415 0 .791.158 1.083.411.292-.252.668-.411 1.083-.411s.791.158 1.083.411c.292-.252.668-.411 1.083-.411.919 0 1.667.747 1.667 1.667v2.634l.035.024 1.029-.012c.044-.001.088-.007.13-.019 1.75-.492 2.973-2.109 2.973-3.932 0-2.065-1.537-3.788-3.55-4.046-.874-1.618-2.59-2.649-4.45-2.649-2.365 0-4.416 1.663-4.933 3.932-1.721.185-3.067 1.646-3.067 3.416 0 1.752 1.313 3.219 3.115 3.415z" class="primary"/><path d="m14.5 16c0-.368-.299-.667-.667-.667s-.666.299-.666.667v3.158l-2.646 1.832c-.244-.147-.527-.237-.832-.237-.895 0-1.623.728-1.623 1.623-.001.896.727 1.624 1.622 1.624s1.623-.728 1.623-1.623c0-.1-.012-.197-.03-.292l2.931-2.03c.18-.124.287-.329.287-.548v-3.507zm-4.812 6.667c-.16 0-.29-.13-.29-.29s.13-.29.29-.29.29.13.29.29-.13.29-.29.29z" class="secondary"/></g></svg>