<svg class="icon" viewBox="7 7 18 18" xmlns="http://www.w3.org/2000/svg"><g transform="scale(0.0625)"><path d="m226.671875 128h-80c-10.304687 0-18.671875 8.367188-18.671875 18.671875v48c0 10.289063 8.367188 18.671875 18.671875 18.671875h80c10.289063 0 18.671875-8.367188 18.671875-18.671875v-48c-.015625-10.304687-8.382812-18.671875-18.671875-18.671875zm0 0" class="secondary"/><path d="m226.671875 234.671875h-80c-10.304687 0-18.671875 8.367187-18.671875 18.65625v112c0 10.304687 8.367188 18.671875 18.671875 18.671875h80c10.289063 0 18.671875-8.367188 18.671875-18.671875v-112c-.015625-10.289063-8.382812-18.65625-18.671875-18.65625zm0 0" class="primary"/><path d="m365.328125 298.671875h-80c-10.289063 0-18.671875 8.367187-18.671875 18.671875v48c0 10.289062 8.367188 18.671875 18.671875 18.671875h80c10.304687-.015625 18.671875-8.382813 18.671875-18.6875v-48c0-10.289063-8.367188-18.65625-18.671875-18.65625zm0 0" class="secondary"/><path d="m365.328125 128h-80c-10.289063 0-18.671875 8.367188-18.671875 18.671875v112c0 10.289063 8.367188 18.671875 18.671875 18.671875h80c10.289063 0 18.671875-8.367188 18.671875-18.671875v-112c0-10.304687-8.367188-18.671875-18.671875-18.671875zm0 0" class="primary"/></g></svg>