<svg class="icon" viewBox="7 7 18 18" xmlns="http://www.w3.org/2000/svg"><path d="m20.783 24c-1.774 0-3.218-1.443-3.218-3.217v-1.594c0-.512-.416-.928-.927-.928s-.927.416-.927.928v.956c0 2.126-1.73 3.855-3.855 3.855s-3.856-1.729-3.856-3.855v-4.145c0-4.411 3.589-8 8-8s8 3.589 8 8v4.783c0 1.774-1.443 3.217-3.217 3.217zm-4.145-7.073c1.246 0 2.261 1.014 2.261 2.261v1.594c0 1.039.845 1.884 1.884 1.884s1.884-.845 1.884-1.884v-4.782c0-3.676-2.991-6.667-6.667-6.667s-6.667 2.991-6.667 6.667v4.145c0 1.391 1.131 2.522 2.522 2.522s2.522-1.131 2.522-2.522v-.956c0-1.247 1.014-2.262 2.261-2.262z" class="primary"/><g class="secondary"><circle cx="11.666" cy="20" r="1.5"/><circle cx="21" cy="18.333" r="1.167"/><circle cx="12.333" cy="14.667" r="1.833"/><circle cx="18.333" cy="13.333" r="2.167"/></g></svg>