<svg class="icon" viewBox="7 7 18 18" xmlns="http://www.w3.org/2000/svg"><path d="m18 9.333h-4c-.368 0-.667-.299-.667-.667s.299-.666.667-.666h4c.368 0 .667.299.667.667s-.299.666-.667.666z" class="primary"/><path d="m19.613 24h-6.631c-2.085 0-3.549-1.116-3.644-2.776-.037-.649.133-1.275.491-1.812l3.819-5.552c.23-.335.352-.727.352-1.133v-3.727c0-.368.299-.667.667-.667s.666.299.666.667v3.727c0 .678-.203 1.331-.587 1.889l-3.813 5.544c-.191.286-.284.63-.263.988.052.922.96 1.518 2.312 1.518h6.631c.899 0 1.67-.681 1.717-1.518.021-.358-.072-.702-.269-.996l-3.808-5.536c-.384-.558-.587-1.212-.587-1.889v-3.727c0-.368.299-.667.667-.667s.667.299.667.667v3.727c0 .407.122.799.352 1.133l3.813 5.544c.363.544.533 1.171.496 1.819-.088 1.558-1.427 2.777-3.048 2.777z" class="primary"/><path d="m19.231 21.333h-6.462c-.424 0-.769-.331-.769-.738 0-.159.052-.311.15-.439.009-.011.018-.022.028-.033l1.885-2.457c.089-.116.225-.188.371-.195.121-.006.238-.034.329-.079l.416-.207c.5-.244 1.142-.245 1.638-.002l.424.212c.087.042.204.07.325.076.146.007.282.079.371.195l1.885 2.457c.01.011.019.022.028.034.098.128.15.28.15.439 0 .406-.345.737-.769.737z" class="secondary"/></svg>