<svg class="icon" fill="none" viewBox="7 7 18 18" xmlns="http://www.w3.org/2000/svg"><g clip-rule="evenodd" fill-rule="evenodd"><path d="m15.8636 8c-1.9079 0-3.4545 1.54665-3.4545 3.4545v4.3637c0 1.9079 1.5466 3.4545 3.4545 3.4545s3.4545-1.5466 3.4545-3.4545v-4.3637c0-1.90785-1.5466-3.4545-3.4545-3.4545z" class="primary"/><path d="m10.0455 14.5455c.3012 0 .5454.2442.5454.5454v.7273c0 2.912 2.3607 5.2727 5.2727 5.2727 2.9121 0 5.2728-2.3607 5.2728-5.2727v-.7273c0-.3012.2442-.5454.5454-.5454.3013 0 .5455.2442.5455.5454v.7273c0 3.5145-2.8491 6.3636-6.3637 6.3636-3.5145 0-6.3636-2.8491-6.3636-6.3636v-.7273c0-.3012.24421-.5454.5455-.5454z" class="secondary"/><path d="m15.8637 21.0909c.3012 0 .5454.2442.5454.5455v1.8181c0 .3013-.2442.5455-.5454.5455-.3013 0-.5455-.2442-.5455-.5455v-1.8181c0-.3013.2442-.5455.5455-.5455z" class="secondary"/></g></svg>