<svg class="icon" viewBox="7 7 18 18" xmlns="http://www.w3.org/2000/svg"><g class="primary"><path d="m13.741 16.5-5.087.007.447-4.813c.093-.947.873-1.66 1.827-1.66h.6c-.127.42-.193.873-.193 1.34-.001 2.073 1.372 3.986 2.406 5.126z"/><path d="m16.927 17.833-4.286 6.167h-2.674c-.52 0-1.013-.22-1.36-.6s-.513-.893-.467-1.407l.387-4.153 6.72-.007z"/><path d="m18.267 16.5c1.027-1.14 2.4-3.053 2.4-5.127 0-.467-.067-.92-.193-1.34h.6c.953 0 1.733.713 1.827 1.66l.447 4.8z"/><path d="m23.472 17.825-4.923.007-4.284 6.168h7.771c.515 0 1.009-.218 1.355-.599.347-.381.518-.893.471-1.406z"/></g><path d="m16.001 8c-1.838 0-3.333 1.514-3.333 3.375 0 2.568 2.885 5.066 3.008 5.172.093.08.209.12.325.12s.232-.04.325-.12c.123-.105 3.008-2.603 3.008-5.172 0-1.861-1.496-3.375-3.333-3.375zm0 4.667c-.735 0-1.333-.598-1.333-1.333s.597-1.334 1.333-1.334 1.333.598 1.333 1.333-.598 1.334-1.333 1.334z" class="secondary"/></svg>