<svg class="icon" viewBox="7 7 18 18" xmlns="http://www.w3.org/2000/svg"><path d="m22 7.667h-12c-1.103 0-2 .897-2 2s.897 2 2 2h12c1.103 0 2-.897 2-2s-.897-2-2-2zm-11.667 3c-.552 0-1-.448-1-1s.448-1 1-1 1 .448 1 1-.447 1-1 1zm3.334 0c-.552 0-1-.448-1-1s.448-1 1-1 1 .448 1 1-.448 1-1 1z" class="primary"/><path d="m22 13h-12c-1.103 0-2 .897-2 2s.897 2 2 2h12c1.103 0 2-.897 2-2s-.897-2-2-2zm-11.667 3c-.552 0-1-.448-1-1s.448-1 1-1 1 .448 1 1-.447 1-1 1zm3.334 0c-.552 0-1-.448-1-1s.448-1 1-1 1 .448 1 1-.448 1-1 1z" class="secondary"/><path d="m22 18.333h-12c-1.103 0-2 .897-2 2s.897 2 2 2h12c1.103 0 2-.897 2-2s-.897-2-2-2zm-11.667 3c-.552 0-1-.448-1-1s.448-1 1-1 1 .448 1 1c0 .553-.447 1-1 1zm3.334 0c-.552 0-1-.448-1-1s.448-1 1-1 1 .448 1 1c0 .553-.448 1-1 1z" class="primary"/></svg>