<svg class="icon" viewBox="7 7 18 18" xmlns="http://www.w3.org/2000/svg"><g class="secondary"><path d="m23 17c-.551 0-1-.449-1-1s.449-1 1-1 1 .449 1 1-.449 1-1 1z"/><path d="m9 17c-.551 0-1-.449-1-1s.449-1 1-1 1 .449 1 1-.449 1-1 1z"/><path d="m17 9c0 .551-.449 1-1 1s-1-.449-1-1 .449-1 1-1 1 .449 1 1z"/><path d="m17 23c0 .551-.449 1-1 1s-1-.449-1-1 .449-1 1-1 1 .449 1 1z"/><path d="m20.243 21.657c-.39-.39-.39-1.024 0-1.414s1.024-.39 1.414 0 .39 1.024 0 1.414-1.024.39-1.414 0z"/><path d="m10.343 11.757c-.39-.39-.39-1.024 0-1.414s1.024-.39 1.414 0 .39 1.024 0 1.414-1.024.39-1.414 0z"/><path d="m21.657 11.757c-.39.39-1.024.39-1.414 0s-.39-1.024 0-1.414 1.024-.39 1.414 0 .39 1.024 0 1.414z"/><path d="m11.757 21.657c-.39.39-1.024.39-1.414 0s-.39-1.024 0-1.414 1.024-.39 1.414 0 .39 1.024 0 1.414z"/><path d="m22.747 15.887c-.196 0-.382-.116-.462-.308l-1.547-3.72c-.106-.255.014-.548.27-.654.255-.105.547.014.654.27l1.547 3.72c.106.255-.014.548-.27.654-.063.025-.128.038-.192.038z"/><path d="m21.2 20.833c-.064 0-.129-.012-.192-.038-.255-.106-.376-.398-.27-.654l1.547-3.72c.107-.255.398-.375.654-.27.255.106.376.398.27.654l-1.547 3.72c-.081.192-.266.308-.462.308z"/><path d="m9.253 15.887c-.064 0-.129-.012-.192-.038-.255-.106-.376-.398-.27-.654l1.547-3.72c.106-.255.398-.375.654-.27.255.106.376.398.27.654l-1.547 3.72c-.08.192-.266.308-.462.308z"/><path d="m10.8 20.833c-.196 0-.382-.116-.462-.308l-1.547-3.72c-.106-.255.014-.548.27-.654.256-.105.547.014.654.27l1.547 3.72c.106.255-.014.548-.27.654-.063.026-.127.038-.192.038z"/><path d="m11.667 11.3c-.196 0-.382-.116-.462-.308-.106-.255.014-.548.27-.654l3.72-1.547c.255-.105.548.014.654.27.106.255-.014.548-.27.654l-3.72 1.547c-.063.026-.128.038-.192.038z"/><path d="m20.333 11.3c-.064 0-.129-.012-.192-.038l-3.72-1.547c-.255-.106-.376-.398-.27-.654.106-.255.398-.375.654-.27l3.72 1.547c.255.106.376.398.27.654-.08.192-.266.308-.462.308z"/><path d="m16.613 23.247c-.196 0-.382-.116-.462-.308-.106-.255.014-.548.27-.654l3.72-1.547c.255-.105.548.014.654.27.106.255-.014.548-.27.654l-3.72 1.547c-.063.025-.127.038-.192.038z"/><path d="m15.387 23.247c-.064 0-.129-.012-.192-.038l-3.72-1.547c-.255-.106-.376-.398-.27-.654s.398-.375.654-.27l3.72 1.547c.255.106.376.398.27.654-.081.192-.266.308-.462.308z"/></g><g class="primary"><path d="m16 11.333c-2.573 0-4.667 2.093-4.667 4.667s2.094 4.667 4.667 4.667 4.667-2.093 4.667-4.667-2.094-4.667-4.667-4.667zm0 6.167c0 .276-.224.5-.5.5s-.5-.224-.5-.5v-.5h-.667v.5c0 .276-.224.5-.5.5s-.5-.224-.5-.5v-2.167c0-.735.598-1.333 1.333-1.333.736 0 1.334.598 1.334 1.333zm2.333 0c0 .276-.224.5-.5.5s-.5-.224-.5-.5v-3c0-.276.224-.5.5-.5s.5.224.5.5z"/><path d="m14.667 15c-.184 0-.333.149-.333.333v.667h.666v-.667c0-.184-.15-.333-.333-.333z"/></g></svg>