<svg class="icon" viewBox="7 7 18 18" xmlns="http://www.w3.org/2000/svg"><g ></g><g id="solid"><g class="secondary"><path d="m19.503 18.6c.079.046.165.067.249.067.173 0 .341-.09.434-.25.138-.239.056-.545-.183-.683l-3.003-1.734 3.003-1.734c.239-.138.321-.444.183-.683-.137-.239-.443-.322-.683-.183l-3.003 1.734v-3.467c0-.276-.224-.5-.5-.5s-.5.224-.5.5v3.467l-3.003-1.734c-.24-.139-.546-.056-.683.183-.138.239-.056.545.183.683l3.003 1.734-3.003 1.734c-.239.138-.321.444-.183.683.092.16.26.25.434.25.085 0 .171-.021.249-.067l3.003-1.734v3.467c0 .276.224.5.5.5s.5-.224.5-.5v-3.467z"/><path d="m17.365 10.62 2.612 1.508c.079.046.165.067.249.067.173 0 .341-.09.434-.25.138-.239.056-.545-.183-.683l-2.612-1.508c-.24-.139-.546-.056-.683.183-.138.24-.056.545.183.683z"/><path d="m19.977 19.872-2.612 1.508c-.239.138-.321.444-.183.683.092.16.26.25.434.25.085 0 .171-.021.249-.067l2.612-1.508c.239-.138.321-.444.183-.683s-.443-.322-.683-.183z"/><path d="m21.167 14.209c-.276 0-.5.224-.5.5v2.583c0 .276.224.5.5.5s.5-.224.5-.5v-2.583c0-.276-.224-.5-.5-.5z"/><path d="m11.774 12.196c.085 0 .171-.021.249-.067l2.612-1.508c.239-.138.321-.444.183-.683s-.443-.322-.683-.183l-2.612 1.508c-.239.138-.321.444-.183.683.093.16.261.25.434.25z"/><path d="m14.635 21.38-2.612-1.508c-.24-.139-.545-.056-.683.183s-.056.545.183.683l2.612 1.508c.079.046.165.067.249.067.173 0 .341-.09.434-.25.138-.239.056-.545-.183-.683z"/><path d="m11.333 14.709c0-.276-.224-.5-.5-.5s-.5.224-.5.5v2.583c0 .276.224.5.5.5s.5-.224.5-.5z"/></g><g class="primary"><circle cx="16" cy="22" r="2"/><circle cx="16" cy="10" r="2"/><path d="m21.199 14.999c.339 0 .682-.086.997-.268.463-.267.794-.698.932-1.214s.067-1.055-.2-1.518c-.551-.954-1.778-1.283-2.732-.732s-1.283 1.777-.732 2.732c.37.642 1.044 1 1.735 1z"/><path d="m9.804 17.268c-.463.267-.794.698-.932 1.214s-.067 1.055.2 1.518c.37.641 1.044.999 1.735.999.339 0 .682-.086.997-.268.954-.551 1.283-1.777.732-2.732-.551-.954-1.776-1.281-2.732-.731z"/><path d="m22.196 17.268c-.955-.55-2.18-.223-2.732.732-.551.955-.223 2.18.732 2.732.314.181.658.268.997.268.691 0 1.365-.359 1.735-.999.267-.463.338-1.002.2-1.518-.138-.517-.469-.948-.932-1.215z"/><path d="m11.804 11.268c-.955-.551-2.18-.223-2.732.732-.267.463-.338 1.002-.2 1.518s.469.947.932 1.214c.314.181.658.268.997.268.691 0 1.365-.359 1.735-.999.551-.956.222-2.181-.732-2.733z"/></g></g></svg>