<svg class="icon" viewBox="7 7 18 18" xmlns="http://www.w3.org/2000/svg"><path d="m18.056 15.853c-.195-.195-.195-.512 0-.707.28-.28.402-.68.325-1.069l-.442-2.242c-.02-.102-.03-.206-.03-.313 0-.89.724-1.614 1.614-1.614.107 0 .211.01.312.03l2.243.442c.389.076.788-.045 1.068-.325.195-.195.511-.196.707 0 .195.195.195.512 0 .707-.516.516-1.25.741-1.969.6l-2.242-.442c-.35-.067-.733.223-.733.602 0 .041.004.082.012.121l.441 2.241c.141.717-.083 1.453-.599 1.969-.195.196-.512.196-.707 0z" class="secondary"/><path d="m20.477 14.091c-.107 0-.211-.01-.312-.03l-2.243-.442c-.387-.075-.788.045-1.068.325-.195.195-.512.195-.707 0s-.195-.512 0-.707c.516-.516 1.254-.739 1.969-.6l2.242.442c.353.07.734-.223.733-.602 0-.041-.004-.082-.012-.121l-.441-2.241c-.141-.717.083-1.453.599-1.969.195-.195.512-.195.707 0s.195.512 0 .707c-.28.28-.402.68-.325 1.069l.442 2.242c.02.102.03.206.03.313 0 .89-.724 1.614-1.614 1.614z" class="secondary"/><g class="primary"><path d="m22 24h-6.667c-.368 0-.667-.299-.667-.667s.299-.667.667-.667h6.667c.368 0 .667-.299.667-.667s-.299-.667-.667-.667h-.833c-.368 0-.667-.299-.667-.667s.298-.665.667-.665h.833c1.103 0 2 .897 2 2s-.897 2-2 2z"/><path d="m20.453 15.673c-.167.413-.42.793-.747 1.12-.714.714-1.867.727-2.593 0-.38-.38-.553-.88-.527-1.38-.5.02-1-.147-1.38-.527-.013-.013-.027-.027-.033-.04-1.02.207-2.047.587-3.007 1.127-.453-.427-1.013-.64-1.667-.64-.273 0-.5.227-.5.5v1.613c-.78.76-1.493 1.767-1.933 2.74-.106.254-.086.541.067.774s.413.373.693.373h6.507c0-1.84 1.493-3.333 3.333-3.333.367 0 .667.3.667.667s-.3.667-.667.667c-1.1 0-2 .9-2 2h5.5c.273 0 .5-.227.5-.5.001-2.387-.779-4.154-2.213-5.161zm-8.453 3.66c-.367 0-.667-.3-.667-.667s.3-.666.667-.666.667.3.667.667-.3.666-.667.666z"/></g></svg>