<svg class="icon" viewBox="7 7 18 18" xmlns="http://www.w3.org/2000/svg"><g ></g><g id="bold_1_"><g><path d="m21.282 21.998c-1.413 1.253-3.26 2.007-5.287 2.007-4.413 0-8-3.587-8-8 0-4.247 3.32-7.727 7.5-7.98v3.347c-2.34.247-4.167 2.233-4.167 4.633 0 2.573 2.093 4.667 4.667 4.667 1.107 0 2.127-.387 2.927-1.033z" class="secondary"/><g class="primary"><path d="m23.975 16.505c-.107 1.827-.833 3.493-1.987 4.787l-2.36-2.36c.547-.673.907-1.513 1-2.427z"/><path d="m23.975 15.505h-3.347c-.227-2.173-1.96-3.907-4.133-4.133v-3.347c4.013.24 7.24 3.467 7.48 7.48z"/></g></g></g></svg>