<svg class="icon" viewBox="7 7 18 18" xmlns="http://www.w3.org/2000/svg"><g transform="scale(0.0625)"><path d="m277.648438 181.632812-135.503907 135.488282c-.6875.6875-1.167969 1.535156-1.410156 2.480468l-15.023437 60.269532c-.445313 1.824218.082031 3.746094 1.410156 5.058594 1.007812 1.007812 2.367187 1.566406 3.773437 1.566406.433594 0 .867188-.046875 1.296875-.160156l60.273438-15.023438c.941406-.242188 1.792968-.71875 2.480468-1.410156l135.488282-135.488282zm0 0" class="primary"/><path d="m364 163.152344-15.089844-15.089844c-10.078125-10.078125-27.644531-10.0625-37.710937 0l-18.480469 18.480469 52.800781 52.800781 18.480469-18.480469c5.039062-5.039062 7.808594-11.726562 7.808594-18.863281 0-7.121094-2.769532-13.808594-7.808594-18.847656zm0 0" class="secondary"/></g></svg>