<svg class="icon" viewBox="7 7 18 18" xmlns="http://www.w3.org/2000/svg"><path d="m16.008 24v-.003c-.005 0-.01 0-.015 0-.497 0-.939-.04-1.372-.115-.272-.047-.454-.306-.408-.578.048-.272.312-.455.578-.407.397.068.804.103 1.209.103.276 0 .504.224.504.5s-.22.5-.496.5zm2.095-.781c-.095-.259.038-.547.298-.641.381-.139.752-.313 1.104-.517.239-.139.545-.057.683.182.139.239.057.545-.182.684-.402.233-.827.432-1.262.591-.263.094-.548-.042-.641-.299zm-6.094-.285c-.4-.231-.785-.5-1.142-.799-.212-.177-.24-.493-.063-.704.178-.213.493-.239.704-.063.313.262.649.497 1 .7.239.138.321.444.183.683-.137.239-.444.321-.682.183zm9.418-1.732c-.212-.177-.24-.493-.063-.704.262-.312.497-.648.701-1 .139-.238.445-.32.684-.182s.32.444.182.683c-.232.401-.501.785-.799 1.141-.177.211-.492.239-.705.062zm-12.349-1.19c-.234-.402-.432-.827-.592-1.262-.095-.259.038-.547.298-.641.258-.095.546.038.641.298.139.381.314.752.518 1.104.139.239.057.545-.181.683-.244.14-.548.053-.684-.182zm14.223-2.218c-.272-.048-.454-.307-.406-.579.07-.397.105-.806.105-1.215 0-.276.224-.516.501-.516.281 0 .521.208.499.547.001.437-.04.904-.12 1.358-.048.275-.312.452-.579.405zm-14.8-1.286c-.277 0-.5-.216-.5-.492 0 0 .038-.935.116-1.386.046-.272.305-.455.577-.408s.455.305.408.577c-.067.395-.102.799-.102 1.201 0 .276-.223.508-.499.508zm14.069-2.93c-.14-.381-.315-.751-.52-1.102-.139-.238-.059-.545.18-.684.237-.141.544-.059.684.179.234.401.434.825.595 1.261.095.259-.038.547-.297.642-.252.095-.544-.031-.642-.296zm-13.325-.879c-.239-.138-.322-.443-.184-.683.23-.402.499-.786.798-1.144.178-.212.493-.239.704-.063.212.177.24.493.063.704-.261.313-.496.649-.698 1-.136.239-.441.324-.683.186zm11.235-2.078c-.312-.26-.648-.494-1.001-.697-.24-.137-.322-.443-.185-.682s.444-.323.682-.185c.403.231.788.499 1.144.797.212.177.24.493.063.704-.176.211-.493.239-.703.063zm-8.68-.855c-.139-.239-.058-.545.18-.684.401-.233.825-.433 1.261-.593.258-.097.546.037.642.296.095.259-.038.547-.297.642-.382.141-.752.315-1.102.519-.239.139-.545.058-.684-.18zm5.393-.665c-.391-.067-.792-.101-1.193-.101-.276 0-.512-.224-.512-.5s.212-.5.488-.5h.024c.458 0 .916.039 1.362.116.272.047.455.305.408.577-.046.272-.305.455-.577.408z" class="secondary"/><path d="m16 10c-3.309 0-6 2.692-6 6s2.691 6 6 6 6-2.692 6-6-2.691-6-6-6zm3.913 9.104c-.285-.185-.589-.345-.906-.485.171-.647.28-1.36.313-2.119h1.655c-.098.979-.481 1.873-1.062 2.604zm-8.887-2.604h1.655c.033.759.143 1.471.313 2.119-.318.14-.621.301-.906.485-.581-.731-.965-1.625-1.062-2.604zm1.062-3.604c.285.185.589.345.906.485-.171.647-.28 1.36-.313 2.119h-1.655c.097-.979.481-1.873 1.062-2.604zm3.412.085c-.431-.031-.849-.106-1.25-.214.338-.814.787-1.382 1.25-1.627zm0 1v1.519h-1.82c.031-.65.125-1.247.26-1.782.5.139 1.023.229 1.56.263zm0 2.519v1.519c-.538.034-1.06.124-1.56.264-.136-.535-.229-1.132-.26-1.782h1.82zm0 2.519v1.842c-.463-.246-.912-.813-1.25-1.627.401-.11.819-.184 1.25-.215zm1 0c.431.031.849.106 1.25.214-.338.814-.787 1.382-1.25 1.627zm0-1v-1.519h1.82c-.031.65-.125 1.247-.26 1.782-.5-.139-1.022-.229-1.56-.263zm0-2.519v-1.519c.538-.034 1.06-.124 1.56-.264.136.535.229 1.132.26 1.782h-1.82zm0-2.519v-1.841c.463.246.912.813 1.25 1.627-.401.109-.818.183-1.25.214zm1.746-1.442c.341.172.662.379.953.622-.163.097-.333.185-.508.266-.132-.324-.281-.621-.445-.888zm-4.936.888c-.175-.081-.345-.169-.508-.266.291-.243.612-.45.953-.622-.165.267-.314.564-.445.888zm0 7.146c.132.323.28.62.445.888-.341-.172-.662-.379-.953-.622.163-.097.333-.185.508-.266zm5.381 0c.175.081.345.169.508.266-.291.243-.612.45-.953.622.164-.268.313-.565.445-.888zm.629-4.073c-.033-.759-.143-1.471-.313-2.119.318-.14.621-.301.906-.485.581.731.964 1.625 1.062 2.604z" class="primary"/></svg>