<svg class="icon" viewBox="7 7 18 18" xmlns="http://www.w3.org/2000/svg"><g ></g><g id="solid"><g><path d="m19.513 11.339-1.415-2.425c-.067-.116-.178-.199-.307-.232-.129-.032-.267-.013-.382.056l-4.327 2.595z" class="secondary"/></g><g><path d="m10 12c-.367 0-.667-.3-.667-.667s.3-.667.667-.667h2.247l2.227-1.333h-4.474c-.987 0-1.807.72-1.967 1.667-.013.053-.033.107-.033.167v10.167c0 1.1.9 2 2 2h11.333c.733 0 1.333-.6 1.333-1.333v-1.333h-1.666c-1.653 0-3-1.347-3-3s1.347-3 3-3h1.667v-1.333c0-.733-.6-1.333-1.333-1.333h-11.334zm10.667-1.333c0-.673-.5-1.233-1.153-1.32l1.153 1.987z" class="primary"/></g><g><path d="m23.5 15.667h-2.5c-1.103 0-2 .897-2 2s.897 2 2 2h2.5c.276 0 .5-.224.5-.5v-3c0-.276-.224-.5-.5-.5zm-2.5 2.666c-.368 0-.667-.299-.667-.667 0-.367.299-.666.667-.666s.667.298.667.667c0 .368-.299.666-.667.666z" class="secondary"/></g></g></svg>