<svg class="icon" viewBox="7 7 18 18" xmlns="http://www.w3.org/2000/svg"><g ></g><g id="bold_v2"><path d="m22.833 14.5h-.167v-1.5c0-1.011-.822-1.833-1.833-1.833h-.82v-.646c0-.643-.523-1.167-1.167-1.167h-2.346v-.854c0-.276-.224-.5-.5-.5s-.5.224-.5.5v.854h-2.514c-.643 0-1.167.523-1.167 1.167v.646h-.653c-1.011 0-1.833.822-1.833 1.833v1.5h-.166c-.644 0-1.167.523-1.167 1.167v3.333c0 .643.523 1.167 1.167 1.167h.167v2c0 1.011.822 1.833 1.833 1.833h9.667c1.011 0 1.833-.822 1.833-1.833v-2h.167c.643 0 1.166-.524 1.166-1.167v-3.333c0-.644-.523-1.167-1.167-1.167zm-3.513-.5c.735 0 1.333.598 1.333 1.333s-.598 1.333-1.333 1.333-1.333-.598-1.333-1.333c-.001-.735.598-1.333 1.333-1.333zm-6.667 0c.735 0 1.333.598 1.333 1.333s-.598 1.333-1.333 1.333-1.333-.598-1.333-1.333.598-1.333 1.333-1.333zm6.684 8.333h-6.67c-1.011 0-1.833-.822-1.833-1.833s.822-1.833 1.833-1.833h6.67c1.011 0 1.833.822 1.833 1.833s-.822 1.833-1.833 1.833z" class="primary"/></g></svg>