<svg class="icon" viewBox="7 7 18 18" xmlns="http://www.w3.org/2000/svg"><path d="m20.667 15.333c-1.838 0-3.333 1.514-3.333 3.375 0 2.568 2.885 5.066 3.008 5.172.186.16.464.16.65 0 .123-.105 3.008-2.603 3.008-5.172 0-1.861-1.495-3.375-3.333-3.375zm0 4.667c-.735 0-1.333-.598-1.333-1.333s.598-1.333 1.333-1.333 1.333.598 1.333 1.333-.598 1.333-1.333 1.333z" class="secondary"/><path d="m14.667 8c-3.674 0-6.667 2.993-6.667 6.667s2.993 6.667 6.667 6.667c.653 0 1.287-.093 1.88-.273-1.021-2.292-.52-4.354.86-5.713-.024 0-.343-.137-.367-.147-2.611-.994-5.053 2.15-2.86 4.767-1.727-.16-3.22-1.14-4.073-2.553.923-.218 1.595-1.04 1.607-2.013.015-.615.43-1.037.947-1.153 2.302-.493 2.52-3.356 1.633-4.893.614-.034 1.132-.017 1.867.2-.185 1.862.822 4.119 3.047 3.907l.633-.073c.053.22.087.44.107.673.419-.072.951-.086 1.36-.007-.315-3.389-3.175-6.056-6.641-6.056z" class="primary"/></svg>